<?xml version="1.0" encoding="utf-8"?>
<!-- Generator: Adobe Illustrator 24.3.0, SVG Export Plug-In . SVG Version: 6.00 Build 0)  -->
<svg version="1.1" id="Layer_1" xmlns="http://www.w3.org/2000/svg" xmlns:xlink="http://www.w3.org/1999/xlink" x="0px" y="0px"
	 viewBox="0 0 196 61" style="enable-background:new 0 0 196 61;" xml:space="preserve">
<style type="text/css">
	.st0{fill:#FFC629;}
	.st1{fill:#8A1739;}
	.st2{fill:#FFFFFF;}
	.st3{fill:url(#SVGID_1_);}
	.st4{fill:url(#SVGID_2_);}
	.st5{fill:#F15722;}
	.st6{font-family:'CambriaMath';}
	.st7{font-size:9.3px;}
</style>
<rect x="0.14" class="st0" width="195.86" height="61"/>
<polygon class="st1" points="52.64,15.67 26.95,0.84 1.27,15.67 1.27,45.33 26.95,60.16 52.64,45.33 "/>
<path class="st2" d="M50.4,19.77v21.46c0,1.73-0.93,3.34-2.43,4.21L29.38,56.17c-1.5,0.87-3.36,0.87-4.86,0L5.94,45.44
	c-1.5-0.87-2.43-2.48-2.43-4.21V19.77c0-1.73,0.93-3.34,2.43-4.21L24.52,4.83c1.5-0.87,3.36-0.87,4.86,0l18.58,10.73
	C49.47,16.43,50.4,18.04,50.4,19.77z M3.77,41.23c0,1.64,0.88,3.16,2.3,3.98l18.58,10.73c1.42,0.82,3.18,0.82,4.59,0l18.58-10.73
	c1.42-0.82,2.3-2.34,2.3-3.98V19.77c0-1.64-0.88-3.16-2.3-3.98L29.25,5.06c-1.42-0.82-3.18-0.82-4.59,0L6.07,15.79
	c-1.42,0.82-2.3,2.34-2.3,3.98V41.23z"/>
<circle class="st2" cx="34.96" cy="15.77" r="3.29"/>
<circle class="st2" cx="40.45" cy="19.18" r="1.47"/>
<circle class="st2" cx="30.09" cy="21.34" r="1.47"/>
<circle class="st2" cx="36.17" cy="24.03" r="1.47"/>
<circle class="st2" cx="30.9" cy="29.99" r="1.47"/>
<circle class="st2" cx="35.61" cy="34.46" r="1.47"/>
<circle class="st2" cx="17.93" cy="18.79" r="1.47"/>
<circle class="st2" cx="15.04" cy="24.8" r="1.47"/>
<circle class="st2" cx="19.83" cy="29.2" r="1.47"/>
<circle class="st2" cx="20.54" cy="37.91" r="1.47"/>
<circle class="st2" cx="32.68" cy="40.45" r="1.47"/>
<circle class="st2" cx="14.48" cy="35.1" r="1.47"/>
<circle class="st2" cx="10.17" cy="39.92" r="1.47"/>
<circle class="st2" cx="15.63" cy="43.37" r="3.27"/>
<circle class="st2" cx="27.32" cy="35.42" r="3.27"/>
<circle class="st2" cx="23.32" cy="23.8" r="3.27"/>
<g>
	
		<linearGradient id="SVGID_1_" gradientUnits="userSpaceOnUse" x1="23.1438" y1="32.9978" x2="32.649" y2="10.6049" gradientTransform="matrix(0.9999 0.0122 -0.0122 0.9999 0.2312 -0.4121)">
		<stop  offset="0" style="stop-color:#FFCD05"/>
		<stop  offset="0.4609" style="stop-color:#F47920"/>
		<stop  offset="1" style="stop-color:#F15722"/>
	</linearGradient>
	<path class="st3" d="M40.47,17.11l-0.05,0c-0.67,0.01-1.26,0.34-1.63,0.83l-0.47-0.28c0.33-0.58,0.51-1.25,0.5-1.94
		c-0.02-2.07-1.73-3.78-3.81-3.81l-0.09,0c-2.13,0.03-3.83,1.77-3.81,3.9c0.01,1.01,0.43,1.94,1.09,2.62l-1.11,1.32
		c-0.28-0.19-0.62-0.3-0.98-0.3l-0.04,0c-0.49,0.01-0.95,0.2-1.29,0.55c-0.34,0.35-0.53,0.81-0.52,1.3c0,0.12,0.02,0.24,0.04,0.36
		l-1.38,0.77c-0.55-1.44-1.93-2.47-3.55-2.49c-1.02-0.01-1.96,0.38-2.65,1.02l-1.28-1.13c0.2-0.29,0.32-0.64,0.32-1.02
		c0.01-1.01-0.8-1.84-1.81-1.85c-1.01-0.01-1.84,0.8-1.85,1.81c-0.01,1.01,0.8,1.84,1.81,1.85c0.36,0,0.69-0.1,0.98-0.28l1.33,1.17
		c-0.46,0.63-0.74,1.39-0.75,2.23c0,0.1,0,0.2,0.01,0.3l-2.41,0.35c-0.19-0.94-1.01-1.66-2.01-1.67c-1.15-0.01-2.09,0.91-2.1,2.05
		c-0.01,1.14,0.91,2.09,2.05,2.1c1.03,0.01,1.9-0.74,2.07-1.73l2.52-0.37c0.2,0.73,0.6,1.38,1.15,1.87l-0.35,0.56
		c-0.19-0.06-0.39-0.09-0.6-0.1c-1.14-0.01-2.09,0.91-2.1,2.05c-0.01,1.14,0.91,2.09,2.05,2.1c1.14,0.01,2.09-0.91,2.1-2.05
		c0.01-0.67-0.3-1.27-0.79-1.65l0.29-0.46c0.56,0.34,1.22,0.54,1.92,0.55c1.04,0.01,1.98-0.39,2.68-1.05l3.2,2.2
		c-0.08,0.11-0.15,0.24-0.21,0.37c-0.22,0.51-0.23,1.07-0.02,1.59c0.31,0.78,1.06,1.3,1.9,1.31c0.27,0,0.54-0.05,0.79-0.15
		c0.52-0.21,0.92-0.6,1.14-1.11c0.22-0.51,0.23-1.07,0.02-1.59c-0.07-0.17-0.16-0.32-0.26-0.45l2.63-2.93
		c0.29,0.17,0.63,0.26,0.98,0.27l0.05,0c0.55-0.01,1.07-0.23,1.46-0.63c0.39-0.4,0.6-0.92,0.59-1.48c-0.01-1.02-0.79-1.88-1.78-2.03
		l-0.43-2.51c0.63-0.18,1.21-0.52,1.68-1.01c0.06-0.06,0.11-0.13,0.17-0.19l0.56,0.34c-0.05,0.19-0.08,0.39-0.08,0.6
		c0.01,1.12,0.93,2.04,2.05,2.05l0.05,0c0.55-0.01,1.07-0.23,1.46-0.63c0.39-0.4,0.6-0.92,0.59-1.48
		C42.51,18.04,41.59,17.12,40.47,17.11z M15.02,26.13c-0.73-0.01-1.32-0.61-1.31-1.34c0.01-0.73,0.61-1.32,1.35-1.31
		c0.73,0.01,1.32,0.61,1.31,1.35C16.36,25.55,15.75,26.14,15.02,26.13z M19.76,30.53c-0.73-0.01-1.32-0.61-1.31-1.34
		c0.01-0.73,0.61-1.32,1.35-1.31c0.73,0.01,1.32,0.61,1.31,1.35C21.1,29.95,20.49,30.53,19.76,30.53z M29.32,20.52
		c0.2-0.21,0.47-0.32,0.79-0.33c0.58,0.01,1.06,0.49,1.07,1.07c0,0.29-0.11,0.56-0.31,0.77c-0.2,0.21-0.47,0.32-0.76,0.33
		l-0.03,0.37l0-0.37c-0.58-0.01-1.06-0.49-1.07-1.07C29.01,21,29.11,20.73,29.32,20.52z M16.85,18.78c0.01-0.6,0.5-1.08,1.09-1.07
		c0.6,0.01,1.08,0.5,1.07,1.1c-0.01,0.6-0.5,1.08-1.1,1.07C17.32,19.87,16.84,19.38,16.85,18.78z M23.29,26.9
		c-1.71-0.02-3.09-1.43-3.07-3.15c0.02-1.71,1.43-3.09,3.15-3.07c1.71,0.02,3.09,1.43,3.07,3.15C26.41,25.55,25,26.92,23.29,26.9z
		 M32.08,30.52c-0.14,0.33-0.4,0.58-0.73,0.71c-0.16,0.07-0.33,0.1-0.51,0.09c-0.54-0.01-1.02-0.34-1.22-0.84
		c-0.13-0.33-0.13-0.69,0.01-1.02c0.14-0.33,0.4-0.58,0.73-0.71c0.16-0.07,0.33-0.1,0.51-0.09c0.54,0.01,1.02,0.34,1.22,0.84
		C32.22,29.83,32.22,30.19,32.08,30.52z M37.5,24.01c0.01,0.73-0.58,1.34-1.31,1.34l-0.03,0c-0.72-0.01-1.3-0.6-1.31-1.31
		c0-0.35,0.13-0.69,0.38-0.94c0.25-0.25,0.58-0.4,0.97-0.4C36.9,22.71,37.49,23.3,37.5,24.01z M35.72,22
		c-0.39,0.09-0.75,0.28-1.03,0.57c-0.39,0.4-0.6,0.92-0.59,1.47c0.01,0.49,0.19,0.95,0.49,1.31l-2.6,2.9
		c-0.32-0.21-0.7-0.33-1.11-0.34c-0.27,0-0.54,0.05-0.79,0.15c-0.14,0.06-0.27,0.13-0.39,0.21l-3.25-2.24
		c0.45-0.62,0.71-1.38,0.72-2.2c0-0.23-0.02-0.45-0.05-0.67l1.49-0.83c0.33,0.45,0.86,0.76,1.45,0.76l0.05,0
		c0.49-0.01,0.94-0.2,1.29-0.55c0.34-0.35,0.53-0.81,0.52-1.3c0-0.36-0.12-0.69-0.3-0.97l1.15-1.36c0.61,0.43,1.35,0.69,2.15,0.7
		l0.1,0c0.1,0,0.2-0.01,0.3-0.02L35.72,22z M35,18.88l-0.08,0c-1.67-0.02-3.05-1.4-3.07-3.07c-0.02-1.71,1.36-3.12,3.07-3.14l0.08,0
		c1.67,0.02,3.05,1.4,3.07,3.07c0.01,0.83-0.3,1.61-0.88,2.21C36.61,18.53,35.83,18.87,35,18.88z M41.4,20.11
		c-0.25,0.25-0.58,0.4-0.93,0.4l-0.03,0c-0.72-0.01-1.3-0.6-1.31-1.31c-0.01-0.73,0.58-1.34,1.35-1.35c0.72,0.01,1.3,0.6,1.31,1.31
		C41.78,19.52,41.65,19.86,41.4,20.11z"/>
</g>
<g>
	
		<linearGradient id="SVGID_2_" gradientUnits="userSpaceOnUse" x1="124.4775" y1="136.4375" x2="130.3992" y2="114.258" gradientTransform="matrix(-0.9998 -0.0183 0.0183 -0.9998 147.9218 165.1602)">
		<stop  offset="0" style="stop-color:#FEC010"/>
		<stop  offset="0.3659" style="stop-color:#FBB117"/>
		<stop  offset="1" style="stop-color:#F26722"/>
	</linearGradient>
	<path class="st4" d="M10.13,42l0.05,0c0.67,0,1.26-0.33,1.64-0.82l0.47,0.29c-0.33,0.58-0.51,1.24-0.51,1.93
		c0.01,2.07,1.71,3.79,3.78,3.83l0.09,0c2.13-0.01,3.84-1.75,3.83-3.88c-0.01-1.01-0.42-1.94-1.07-2.63l1.12-1.31
		c0.28,0.19,0.62,0.3,0.97,0.31l0.04,0c0.49,0,0.95-0.2,1.29-0.54c0.34-0.35,0.53-0.81,0.53-1.3c0-0.12-0.01-0.24-0.04-0.36
		l1.38-0.76c0.54,1.44,1.91,2.48,3.54,2.51c1.02,0.02,1.96-0.37,2.66-1.01l1.27,1.14c-0.2,0.29-0.32,0.64-0.33,1.01
		c-0.02,1.01,0.79,1.84,1.8,1.86c1.01,0.02,1.84-0.79,1.86-1.79c0.02-1.01-0.79-1.84-1.79-1.86c-0.36-0.01-0.69,0.1-0.98,0.27
		l-1.32-1.18c0.46-0.62,0.75-1.39,0.76-2.22c0-0.1,0-0.2-0.01-0.3l2.41-0.34c0.18,0.94,1,1.67,2,1.68c1.14,0.02,2.09-0.89,2.11-2.04
		c0.02-1.14-0.89-2.09-2.04-2.11c-1.03-0.02-1.91,0.73-2.08,1.71l-2.52,0.35c-0.19-0.73-0.59-1.38-1.14-1.88l0.36-0.56
		c0.19,0.06,0.39,0.1,0.59,0.1c1.14,0.02,2.09-0.89,2.11-2.04c0.02-1.14-0.89-2.09-2.04-2.11c-1.14-0.02-2.09,0.89-2.11,2.04
		c-0.01,0.67,0.3,1.27,0.78,1.66l-0.3,0.46c-0.56-0.34-1.22-0.55-1.92-0.56c-1.04-0.02-1.98,0.38-2.69,1.03l-3.18-2.22
		c0.08-0.11,0.15-0.24,0.21-0.37c0.22-0.51,0.23-1.07,0.03-1.59c-0.31-0.79-1.05-1.3-1.9-1.32c-0.27,0-0.54,0.04-0.79,0.14
		c-0.52,0.2-0.92,0.59-1.15,1.1c-0.22,0.51-0.23,1.07-0.03,1.59c0.06,0.17,0.15,0.32,0.25,0.46L15.5,33.3
		c-0.29-0.17-0.63-0.27-0.98-0.27l-0.05,0c-0.55,0-1.07,0.22-1.47,0.62c-0.39,0.39-0.6,0.92-0.6,1.47c0.01,1.02,0.78,1.89,1.77,2.04
		l0.41,2.51c-0.63,0.18-1.21,0.52-1.68,1c-0.06,0.06-0.11,0.12-0.17,0.19l-0.56-0.34c0.06-0.19,0.09-0.39,0.09-0.6
		c-0.01-1.12-0.92-2.04-2.04-2.06l-0.05,0c-0.55,0-1.07,0.22-1.46,0.62c-0.39,0.39-0.6,0.92-0.6,1.47C8.1,41.05,9.01,41.98,10.13,42
		z M35.64,33.13c0.73,0.01,1.32,0.62,1.31,1.35c-0.01,0.73-0.62,1.32-1.35,1.3c-0.73-0.01-1.32-0.62-1.3-1.35
		C34.3,33.7,34.91,33.12,35.64,33.13z M30.93,28.71c0.73,0.01,1.32,0.62,1.31,1.35c-0.01,0.73-0.62,1.32-1.35,1.3
		c-0.73-0.01-1.32-0.62-1.3-1.35C29.59,29.28,30.19,28.69,30.93,28.71z M21.31,38.65c-0.2,0.21-0.47,0.32-0.79,0.32
		c-0.58-0.01-1.06-0.49-1.06-1.08c0-0.29,0.11-0.56,0.31-0.77c0.2-0.21,0.47-0.32,0.76-0.32l0.03-0.37l-0.01,0.37
		c0.58,0.01,1.06,0.49,1.06,1.08C21.62,38.18,21.51,38.45,21.31,38.65z M33.76,40.47c-0.01,0.6-0.5,1.07-1.1,1.06
		c-0.6-0.01-1.07-0.51-1.06-1.1c0.01-0.6,0.51-1.07,1.1-1.06C33.3,39.38,33.77,39.87,33.76,40.47z M27.38,32.31
		c1.71,0.03,3.08,1.45,3.05,3.16c-0.03,1.71-1.45,3.08-3.16,3.05c-1.71-0.03-3.08-1.45-3.05-3.16
		C24.25,33.64,25.67,32.28,27.38,32.31z M18.61,28.64c0.14-0.33,0.4-0.58,0.73-0.71c0.16-0.06,0.34-0.09,0.51-0.09
		c0.54,0.01,1.02,0.34,1.21,0.85c0.13,0.33,0.12,0.69-0.02,1.02c-0.14,0.33-0.4,0.58-0.73,0.71c-0.16,0.06-0.34,0.09-0.51,0.09
		c-0.54-0.01-1.02-0.34-1.21-0.84C18.46,29.32,18.47,28.96,18.61,28.64z M13.15,35.11c0-0.73,0.59-1.33,1.32-1.34l0.03,0
		c0.72,0.01,1.3,0.61,1.3,1.32c0,0.35-0.13,0.69-0.38,0.94c-0.25,0.25-0.58,0.39-0.97,0.39C13.74,36.42,13.15,35.83,13.15,35.11z
		 M14.92,37.13c0.39-0.08,0.75-0.28,1.04-0.57c0.39-0.39,0.6-0.92,0.6-1.47c0-0.49-0.18-0.95-0.48-1.31l2.61-2.88
		c0.32,0.21,0.7,0.34,1.1,0.34c0.27,0,0.54-0.04,0.79-0.14c0.14-0.05,0.27-0.12,0.39-0.21l3.23,2.26c-0.45,0.62-0.72,1.37-0.74,2.19
		c0,0.23,0.02,0.45,0.05,0.67l-1.49,0.82c-0.33-0.46-0.85-0.76-1.45-0.77l-0.05,0c-0.49,0-0.95,0.2-1.29,0.54
		c-0.34,0.35-0.53,0.81-0.53,1.3c0,0.36,0.11,0.69,0.29,0.97l-1.15,1.35c-0.61-0.43-1.35-0.7-2.14-0.71l-0.1,0
		c-0.1,0-0.2,0.01-0.3,0.02L14.92,37.13z M15.62,40.26l0.08,0c1.67,0.03,3.04,1.42,3.05,3.09c0.01,1.71-1.38,3.12-3.09,3.13l-0.08,0
		c-1.67-0.03-3.04-1.42-3.05-3.09c-0.01-0.83,0.31-1.61,0.9-2.2C14.01,40.6,14.79,40.27,15.62,40.26z M9.23,38.99
		c0.25-0.25,0.58-0.39,0.94-0.39l0.03,0c0.72,0.01,1.3,0.61,1.3,1.32c0,0.73-0.59,1.33-1.35,1.34c-0.72-0.01-1.3-0.61-1.3-1.32
		C8.84,39.57,8.98,39.24,9.23,38.99z"/>
</g>
<g>
	<path class="st5" d="M194.44,32.46c0,1.1-0.9,2-2,2H57.16c-1.1,0-2-0.9-2-2V18.45c0-1.1,0.9-2,2-2h135.28c1.1,0,2,0.9,2,2V32.46z"
		/>
</g>
<g>
	<g>
		<path class="st2" d="M60.39,31.03c-0.53,0-0.96-0.09-1.29-0.27s-0.57-0.44-0.74-0.78c-0.17-0.34-0.28-0.74-0.34-1.22
			s-0.09-1-0.09-1.57v-3.68c0-0.73,0.06-1.38,0.18-1.94s0.36-1,0.72-1.32s0.89-0.48,1.59-0.48c0.49,0,0.88,0.08,1.18,0.24
			c0.3,0.16,0.53,0.39,0.69,0.7c0.16,0.3,0.27,0.66,0.32,1.08s0.08,0.89,0.08,1.4v0.76h-1.48V23c0-0.42-0.01-0.77-0.04-1.06
			c-0.03-0.29-0.1-0.5-0.21-0.65s-0.3-0.22-0.56-0.22c-0.28,0-0.49,0.08-0.62,0.24s-0.23,0.39-0.27,0.68
			c-0.05,0.3-0.07,0.65-0.07,1.05v4.67c0,0.45,0.02,0.83,0.06,1.13c0.04,0.3,0.12,0.53,0.26,0.67c0.13,0.15,0.33,0.22,0.61,0.22
			c0.26,0,0.46-0.08,0.58-0.24c0.12-0.16,0.2-0.39,0.23-0.69c0.03-0.3,0.05-0.66,0.05-1.07v-1.06h1.48v0.71
			c0,0.54-0.03,1.04-0.08,1.48s-0.16,0.83-0.32,1.15c-0.16,0.32-0.39,0.57-0.7,0.75S60.89,31.03,60.39,31.03z"/>
		<path class="st2" d="M66.82,31.03c-0.52,0-0.94-0.09-1.26-0.27c-0.32-0.18-0.57-0.43-0.74-0.76c-0.17-0.33-0.29-0.72-0.35-1.19
			c-0.06-0.46-0.1-0.98-0.1-1.55v-3.89c0-0.69,0.07-1.3,0.2-1.85c0.13-0.54,0.38-0.97,0.73-1.28c0.35-0.31,0.86-0.47,1.53-0.47
			c0.5,0,0.91,0.09,1.22,0.27s0.56,0.43,0.74,0.75c0.18,0.33,0.3,0.71,0.36,1.14c0.07,0.44,0.1,0.91,0.1,1.43v3.89
			c0,0.56-0.03,1.07-0.09,1.53s-0.17,0.86-0.34,1.19c-0.17,0.33-0.41,0.59-0.73,0.77C67.76,30.94,67.34,31.03,66.82,31.03z
			 M66.82,29.78c0.26,0,0.46-0.09,0.59-0.26c0.13-0.18,0.22-0.42,0.26-0.74c0.04-0.32,0.07-0.68,0.07-1.1v-4.61
			c0-0.41-0.02-0.77-0.07-1.07c-0.04-0.3-0.13-0.54-0.26-0.71c-0.13-0.17-0.33-0.26-0.59-0.26c-0.27,0-0.48,0.09-0.62,0.26
			S65.98,21.7,65.94,22c-0.04,0.31-0.06,0.66-0.06,1.07v4.61c0,0.42,0.02,0.78,0.06,1.1c0.04,0.31,0.13,0.56,0.27,0.74
			S66.54,29.78,66.82,29.78z"/>
		<path class="st2" d="M71.2,30.9V19.91h1.5v1.16c0.1-0.34,0.31-0.64,0.63-0.91c0.32-0.26,0.7-0.4,1.15-0.4
			c0.55,0,0.98,0.2,1.29,0.59s0.46,0.98,0.46,1.78v8.76h-1.5v-8.75c0-0.39-0.09-0.67-0.26-0.85s-0.4-0.26-0.67-0.26
			c-0.2,0-0.38,0.04-0.55,0.13c-0.17,0.09-0.3,0.22-0.39,0.41c-0.09,0.19-0.14,0.42-0.14,0.72v8.61H71.2z"/>
		<path class="st2" d="M80.36,31.04c-0.78,0-1.38-0.24-1.78-0.74c-0.41-0.49-0.61-1.3-0.61-2.44v-0.83h1.46v0.82
			c0,0.62,0.07,1.09,0.2,1.41c0.13,0.33,0.35,0.49,0.66,0.49c0.31,0,0.53-0.1,0.68-0.3c0.14-0.2,0.22-0.56,0.22-1.08
			c0-0.26-0.04-0.52-0.12-0.77c-0.08-0.26-0.2-0.51-0.36-0.76c-0.16-0.25-0.37-0.5-0.62-0.74l-0.78-0.74
			c-0.46-0.44-0.82-0.92-1.06-1.42s-0.37-1.03-0.37-1.59c0-0.89,0.21-1.54,0.63-1.96c0.42-0.42,1-0.63,1.74-0.63
			c0.49,0,0.91,0.11,1.25,0.32c0.34,0.21,0.59,0.57,0.76,1.07c0.17,0.5,0.26,1.18,0.26,2.04v0.53h-1.43v-0.76
			c0-0.62-0.06-1.09-0.18-1.41c-0.12-0.33-0.33-0.49-0.64-0.49c-0.3,0-0.52,0.09-0.67,0.26c-0.15,0.17-0.23,0.49-0.25,0.95
			c0,0.23,0.03,0.47,0.09,0.71c0.07,0.24,0.17,0.48,0.33,0.71c0.15,0.23,0.35,0.46,0.59,0.69l0.79,0.74
			c0.51,0.47,0.9,0.98,1.16,1.53c0.26,0.54,0.39,1.12,0.39,1.72c0,0.83-0.19,1.48-0.57,1.96C81.75,30.81,81.16,31.04,80.36,31.04z"
			/>
		<path class="st2" d="M86.12,30.96c-0.47,0-0.82-0.06-1.06-0.17s-0.4-0.29-0.48-0.54c-0.08-0.25-0.13-0.58-0.13-0.99v-8.15h-1V20h1
			v-1.99h1.5V20h1.19v1.11h-1.19v8.02c0,0.19,0.02,0.32,0.07,0.41c0.05,0.09,0.16,0.15,0.33,0.18s0.44,0.04,0.8,0.04v1.19H86.12z"/>
		<path class="st2" d="M88.57,30.9V19.91h1.51v1.22c0.13-0.42,0.35-0.76,0.66-1c0.32-0.24,0.72-0.36,1.21-0.36
			c0.01,0,0.02,0.06,0.02,0.19c0,0.13,0,0.28,0,0.44s0,0.38,0,0.64c-0.23,0-0.47,0.03-0.7,0.08c-0.23,0.06-0.45,0.15-0.66,0.29
			s-0.38,0.32-0.53,0.55v8.93H88.57z"/>
		<path class="st2" d="M95.02,31.04c-0.33,0-0.63-0.08-0.91-0.24s-0.5-0.42-0.67-0.78c-0.17-0.36-0.26-0.83-0.26-1.41v-8.7h1.5v8.53
			c0,0.42,0.08,0.75,0.23,0.97s0.39,0.33,0.72,0.33c0.36,0,0.63-0.13,0.8-0.38c0.17-0.25,0.26-0.57,0.26-0.96v-8.5h1.51V30.9h-1.51
			v-1.12c-0.11,0.34-0.3,0.64-0.58,0.89C95.84,30.92,95.47,31.04,95.02,31.04z"/>
		<path class="st2" d="M102.6,31.03c-0.53,0-0.96-0.09-1.29-0.27c-0.32-0.18-0.57-0.44-0.74-0.78c-0.17-0.34-0.28-0.74-0.34-1.22
			s-0.09-1-0.09-1.57v-3.68c0-0.73,0.06-1.38,0.18-1.94c0.12-0.56,0.36-1,0.72-1.32s0.89-0.48,1.59-0.48c0.49,0,0.88,0.08,1.18,0.24
			c0.3,0.16,0.53,0.39,0.69,0.7c0.16,0.3,0.27,0.66,0.32,1.08c0.06,0.42,0.08,0.89,0.08,1.4v0.76h-1.48V23
			c0-0.42-0.01-0.77-0.04-1.06c-0.03-0.29-0.1-0.5-0.21-0.65s-0.3-0.22-0.56-0.22c-0.28,0-0.49,0.08-0.62,0.24
			c-0.14,0.16-0.23,0.39-0.28,0.68c-0.05,0.3-0.07,0.65-0.07,1.05v4.67c0,0.45,0.02,0.83,0.06,1.13c0.04,0.3,0.12,0.53,0.26,0.67
			c0.13,0.15,0.33,0.22,0.61,0.22c0.26,0,0.46-0.08,0.58-0.24c0.12-0.16,0.2-0.39,0.23-0.69c0.03-0.3,0.05-0.66,0.05-1.07v-1.06
			h1.48v0.71c0,0.54-0.03,1.04-0.08,1.48s-0.16,0.83-0.32,1.15c-0.16,0.32-0.39,0.57-0.7,0.75
			C103.51,30.94,103.11,31.03,102.6,31.03z"/>
		<path class="st2" d="M108.66,30.96c-0.47,0-0.82-0.06-1.06-0.17s-0.4-0.29-0.48-0.54c-0.08-0.25-0.13-0.58-0.13-0.99v-8.15h-1V20
			h1v-1.99h1.5V20h1.19v1.11h-1.19v8.02c0,0.19,0.02,0.32,0.07,0.41c0.05,0.09,0.16,0.15,0.33,0.18s0.44,0.04,0.8,0.04v1.19H108.66z
			"/>
		<path class="st2" d="M111.13,18.9v-1.38h1.51v1.38H111.13z M111.13,30.9V19.91h1.51V30.9H111.13z"/>
		<path class="st2" d="M117.09,31.03c-0.52,0-0.94-0.09-1.26-0.27c-0.32-0.18-0.57-0.43-0.74-0.76c-0.17-0.33-0.29-0.72-0.35-1.19
			c-0.06-0.46-0.1-0.98-0.1-1.55v-3.89c0-0.69,0.07-1.3,0.2-1.85c0.13-0.54,0.38-0.97,0.73-1.28c0.35-0.31,0.86-0.47,1.53-0.47
			c0.5,0,0.91,0.09,1.22,0.27s0.56,0.43,0.74,0.75c0.18,0.33,0.3,0.71,0.36,1.14c0.07,0.44,0.1,0.91,0.1,1.43v3.89
			c0,0.56-0.03,1.07-0.09,1.53s-0.17,0.86-0.34,1.19c-0.17,0.33-0.41,0.59-0.73,0.77C118.04,30.94,117.61,31.03,117.09,31.03z
			 M117.09,29.78c0.26,0,0.46-0.09,0.59-0.26c0.13-0.18,0.22-0.42,0.26-0.74c0.04-0.32,0.07-0.68,0.07-1.1v-4.61
			c0-0.41-0.02-0.77-0.07-1.07c-0.04-0.3-0.13-0.54-0.26-0.71c-0.13-0.17-0.33-0.26-0.59-0.26c-0.27,0-0.48,0.09-0.62,0.26
			s-0.23,0.41-0.27,0.71c-0.04,0.31-0.06,0.66-0.06,1.07v4.61c0,0.42,0.02,0.78,0.06,1.1c0.04,0.31,0.13,0.56,0.27,0.74
			S116.82,29.78,117.09,29.78z"/>
		<path class="st2" d="M121.47,30.9V19.91h1.5v1.16c0.1-0.34,0.31-0.64,0.63-0.91c0.32-0.26,0.7-0.4,1.15-0.4
			c0.55,0,0.98,0.2,1.29,0.59s0.46,0.98,0.46,1.78v8.76h-1.5v-8.75c0-0.39-0.09-0.67-0.26-0.85s-0.4-0.26-0.67-0.26
			c-0.2,0-0.38,0.04-0.55,0.13c-0.17,0.09-0.3,0.22-0.39,0.41c-0.09,0.19-0.14,0.42-0.14,0.72v8.61H121.47z"/>
		<path class="st2" d="M128.59,32.91V19.91h1.5v0.92c0.15-0.36,0.36-0.62,0.65-0.78c0.29-0.16,0.58-0.23,0.88-0.23
			c0.53,0,0.92,0.16,1.19,0.47s0.45,0.73,0.54,1.26c0.09,0.53,0.13,1.14,0.13,1.81v3.98c0,0.69-0.05,1.32-0.16,1.88
			c-0.1,0.56-0.31,1-0.61,1.33c-0.3,0.33-0.75,0.49-1.34,0.49c-0.28,0-0.54-0.09-0.76-0.26c-0.23-0.17-0.4-0.38-0.52-0.6v2.74
			H128.59z M131.08,29.77c0.36,0,0.6-0.19,0.72-0.55c0.12-0.36,0.18-0.92,0.18-1.69v-4.45c0-0.41-0.02-0.76-0.05-1.07
			s-0.11-0.55-0.23-0.72c-0.12-0.17-0.32-0.26-0.58-0.26c-0.21,0-0.39,0.05-0.54,0.15c-0.15,0.1-0.27,0.29-0.35,0.59
			c-0.08,0.29-0.13,0.73-0.13,1.32v4.5c0,0.73,0.06,1.27,0.19,1.63C130.4,29.59,130.67,29.77,131.08,29.77z"/>
		<path class="st2" d="M135.47,30.9V19.91h1.51v1.22c0.13-0.42,0.35-0.76,0.66-1c0.32-0.24,0.72-0.36,1.21-0.36
			c0.01,0,0.02,0.06,0.02,0.19c0,0.13,0,0.28,0,0.44s0,0.38,0,0.64c-0.23,0-0.47,0.03-0.7,0.08c-0.23,0.06-0.45,0.15-0.66,0.29
			s-0.38,0.32-0.53,0.55v8.93H135.47z"/>
		<path class="st2" d="M142.46,31.03c-0.52,0-0.94-0.09-1.26-0.27c-0.32-0.18-0.57-0.43-0.74-0.76c-0.17-0.33-0.29-0.72-0.35-1.19
			c-0.06-0.46-0.1-0.98-0.1-1.55v-3.89c0-0.69,0.07-1.3,0.2-1.85c0.13-0.54,0.38-0.97,0.73-1.28c0.35-0.31,0.86-0.47,1.53-0.47
			c0.5,0,0.91,0.09,1.22,0.27s0.56,0.43,0.74,0.75c0.18,0.33,0.3,0.71,0.36,1.14c0.07,0.44,0.1,0.91,0.1,1.43v3.89
			c0,0.56-0.03,1.07-0.09,1.53s-0.17,0.86-0.34,1.19c-0.17,0.33-0.41,0.59-0.73,0.77C143.4,30.94,142.98,31.03,142.46,31.03z
			 M142.46,29.78c0.26,0,0.46-0.09,0.59-0.26c0.13-0.18,0.22-0.42,0.26-0.74c0.04-0.32,0.07-0.68,0.07-1.1v-4.61
			c0-0.41-0.02-0.77-0.07-1.07c-0.04-0.3-0.13-0.54-0.26-0.71c-0.13-0.17-0.33-0.26-0.59-0.26c-0.27,0-0.48,0.09-0.62,0.26
			s-0.23,0.41-0.27,0.71c-0.04,0.31-0.06,0.66-0.06,1.07v4.61c0,0.42,0.02,0.78,0.06,1.1c0.04,0.31,0.13,0.56,0.27,0.74
			S142.18,29.78,142.46,29.78z"/>
		<path class="st2" d="M148.56,30.99c-0.54,0-0.95-0.16-1.21-0.48c-0.27-0.32-0.44-0.75-0.53-1.29c-0.08-0.54-0.13-1.16-0.13-1.84
			v-4.15c0-0.65,0.06-1.24,0.18-1.76c0.12-0.52,0.33-0.93,0.64-1.23c0.31-0.3,0.73-0.45,1.28-0.45c0.29,0,0.55,0.08,0.77,0.25
			c0.23,0.17,0.4,0.37,0.52,0.62v-2.78h1.51V30.9h-1.51v-0.92c-0.15,0.36-0.35,0.62-0.62,0.78
			C149.19,30.91,148.89,30.99,148.56,30.99z M149.08,29.77c0.23,0,0.42-0.06,0.57-0.17c0.15-0.11,0.26-0.33,0.33-0.64
			c0.07-0.31,0.11-0.76,0.11-1.34v-4.41c0-0.71-0.06-1.25-0.18-1.62c-0.12-0.37-0.38-0.55-0.79-0.55c-0.37,0-0.61,0.18-0.73,0.54
			c-0.12,0.35-0.18,0.91-0.18,1.67v4.44c0,0.42,0.02,0.79,0.06,1.11c0.04,0.31,0.13,0.55,0.25,0.73
			C148.65,29.69,148.83,29.77,149.08,29.77z"/>
		<path class="st2" d="M155.49,31.04c-0.33,0-0.63-0.08-0.91-0.24s-0.5-0.42-0.67-0.78c-0.17-0.36-0.26-0.83-0.26-1.41v-8.7h1.5
			v8.53c0,0.42,0.08,0.75,0.23,0.97s0.39,0.33,0.72,0.33c0.36,0,0.63-0.13,0.8-0.38c0.17-0.25,0.26-0.57,0.26-0.96v-8.5h1.51V30.9
			h-1.51v-1.12c-0.11,0.34-0.3,0.64-0.58,0.89C156.31,30.92,155.94,31.04,155.49,31.04z"/>
		<path class="st2" d="M163.07,31.03c-0.53,0-0.96-0.09-1.29-0.27c-0.32-0.18-0.57-0.44-0.74-0.78c-0.17-0.34-0.28-0.74-0.34-1.22
			s-0.09-1-0.09-1.57v-3.68c0-0.73,0.06-1.38,0.18-1.94c0.12-0.56,0.36-1,0.72-1.32s0.89-0.48,1.59-0.48c0.49,0,0.88,0.08,1.18,0.24
			c0.3,0.16,0.53,0.39,0.69,0.7c0.16,0.3,0.27,0.66,0.32,1.08c0.06,0.42,0.08,0.89,0.08,1.4v0.76h-1.48V23
			c0-0.42-0.01-0.77-0.04-1.06c-0.03-0.29-0.1-0.5-0.21-0.65s-0.3-0.22-0.56-0.22c-0.28,0-0.49,0.08-0.62,0.24
			c-0.14,0.16-0.23,0.39-0.28,0.68c-0.05,0.3-0.07,0.65-0.07,1.05v4.67c0,0.45,0.02,0.83,0.06,1.13c0.04,0.3,0.12,0.53,0.26,0.67
			c0.13,0.15,0.33,0.22,0.61,0.22c0.26,0,0.46-0.08,0.58-0.24c0.12-0.16,0.2-0.39,0.23-0.69c0.03-0.3,0.05-0.66,0.05-1.07v-1.06
			h1.48v0.71c0,0.54-0.03,1.04-0.08,1.48s-0.16,0.83-0.32,1.15c-0.16,0.32-0.39,0.57-0.7,0.75
			C163.98,30.94,163.58,31.03,163.07,31.03z"/>
		<path class="st2" d="M169.13,30.96c-0.47,0-0.82-0.06-1.06-0.17s-0.4-0.29-0.48-0.54c-0.08-0.25-0.13-0.58-0.13-0.99v-8.15h-1V20
			h1v-1.99h1.5V20h1.19v1.11h-1.19v8.02c0,0.19,0.02,0.32,0.07,0.41c0.05,0.09,0.16,0.15,0.33,0.18s0.44,0.04,0.8,0.04v1.19H169.13z
			"/>
		<path class="st2" d="M173.63,31.04c-0.78,0-1.38-0.24-1.78-0.74c-0.41-0.49-0.61-1.3-0.61-2.44v-0.83h1.46v0.82
			c0,0.62,0.07,1.09,0.2,1.41c0.13,0.33,0.35,0.49,0.66,0.49c0.31,0,0.53-0.1,0.68-0.3c0.14-0.2,0.22-0.56,0.22-1.08
			c0-0.26-0.04-0.52-0.12-0.77c-0.08-0.26-0.2-0.51-0.36-0.76c-0.16-0.25-0.37-0.5-0.62-0.74l-0.78-0.74
			c-0.46-0.44-0.82-0.92-1.06-1.42s-0.37-1.03-0.37-1.59c0-0.89,0.21-1.54,0.63-1.96c0.42-0.42,1-0.63,1.74-0.63
			c0.49,0,0.91,0.11,1.25,0.32c0.34,0.21,0.59,0.57,0.76,1.07c0.17,0.5,0.26,1.18,0.26,2.04v0.53h-1.43v-0.76
			c0-0.62-0.06-1.09-0.18-1.41c-0.12-0.33-0.33-0.49-0.64-0.49c-0.3,0-0.52,0.09-0.67,0.26c-0.15,0.17-0.23,0.49-0.25,0.95
			c0,0.23,0.03,0.47,0.09,0.71c0.07,0.24,0.17,0.48,0.33,0.71c0.15,0.23,0.35,0.46,0.59,0.69l0.79,0.74
			c0.51,0.47,0.9,0.98,1.16,1.53c0.26,0.54,0.39,1.12,0.39,1.72c0,0.83-0.19,1.48-0.57,1.96C175.02,30.81,174.43,31.04,173.63,31.04
			z"/>
		<path class="st2" d="M177.65,30.9v-1.45h1.28v1.45H177.65z"/>
		<path class="st2" d="M183,30.99c-0.66,0-1.14-0.26-1.44-0.77c-0.29-0.51-0.44-1.23-0.45-2.14v-1.07c0-0.48,0.08-0.88,0.25-1.2
			s0.4-0.59,0.7-0.8s0.66-0.41,1.07-0.58c0.41-0.17,0.86-0.36,1.35-0.55v-0.85c0-0.47-0.02-0.85-0.04-1.14s-0.1-0.5-0.22-0.64
			c-0.12-0.14-0.31-0.21-0.58-0.21c-0.26,0-0.45,0.07-0.58,0.21c-0.13,0.14-0.21,0.35-0.25,0.64s-0.06,0.67-0.06,1.14v0.38h-1.49
			v-0.31c0-0.47,0.03-0.9,0.09-1.31c0.06-0.4,0.17-0.75,0.34-1.05s0.41-0.53,0.73-0.7c0.32-0.17,0.74-0.25,1.26-0.25
			c0.5,0,0.9,0.08,1.21,0.24c0.3,0.16,0.54,0.39,0.7,0.7c0.16,0.31,0.27,0.69,0.33,1.14c0.06,0.45,0.09,0.97,0.09,1.56v7.48h-1.51
			v-0.95c-0.04,0.15-0.13,0.3-0.26,0.46c-0.13,0.16-0.29,0.3-0.5,0.41S183.29,30.99,183,30.99z M183.43,29.78
			c0.26,0,0.49-0.08,0.68-0.25c0.19-0.17,0.32-0.34,0.38-0.5v-4.18c-0.38,0.17-0.69,0.32-0.93,0.45c-0.24,0.13-0.43,0.27-0.56,0.42
			c-0.13,0.15-0.23,0.32-0.28,0.53s-0.08,0.46-0.08,0.78v1.02c0,0.62,0.05,1.07,0.16,1.34C182.9,29.64,183.11,29.78,183.43,29.78z"
			/>
		<path class="st2" d="M190.22,31.03c-0.53,0-0.95-0.09-1.27-0.27c-0.32-0.18-0.56-0.44-0.73-0.78c-0.17-0.34-0.28-0.74-0.33-1.21
			c-0.06-0.47-0.08-0.99-0.08-1.56v-3.88c0-0.52,0.04-0.99,0.11-1.42c0.07-0.43,0.2-0.81,0.38-1.12c0.18-0.31,0.43-0.56,0.75-0.73
			c0.32-0.17,0.73-0.26,1.23-0.26c0.5,0,0.91,0.09,1.22,0.26s0.54,0.42,0.7,0.74c0.16,0.32,0.26,0.7,0.32,1.14
			c0.05,0.44,0.08,0.93,0.08,1.45v2.07h-3.28v2.19c0,0.69,0.05,1.22,0.14,1.59c0.1,0.36,0.36,0.55,0.78,0.55
			c0.28,0,0.48-0.09,0.6-0.26c0.12-0.17,0.19-0.42,0.22-0.73c0.03-0.31,0.04-0.69,0.04-1.12v-0.89h1.47v0.47
			c0,0.57-0.02,1.09-0.07,1.55c-0.05,0.46-0.15,0.86-0.3,1.19s-0.38,0.59-0.7,0.77C191.19,30.94,190.76,31.03,190.22,31.03z
			 M189.31,24.44h1.79v-1.4c0-0.44-0.02-0.81-0.04-1.11c-0.03-0.3-0.1-0.53-0.21-0.68c-0.11-0.15-0.3-0.23-0.56-0.23
			c-0.29,0-0.5,0.09-0.64,0.26c-0.14,0.18-0.23,0.42-0.27,0.73c-0.04,0.31-0.06,0.67-0.06,1.08V24.44z"/>
	</g>
</g>
<text transform="matrix(1 0 0 1 54.5115 43.3718)" class="st2 st6 st7">Online Partner for Quality Products</text>
</svg>
