<?xml version="1.0" encoding="utf-8"?>
<!-- Generator: Adobe Illustrator 24.3.0, SVG Export Plug-In . SVG Version: 6.00 Build 0)  -->
<svg version="1.1" id="Layer_1" xmlns="http://www.w3.org/2000/svg" xmlns:xlink="http://www.w3.org/1999/xlink" x="0px" y="0px"
	 viewBox="0 0 300 90" style="enable-background:new 0 0 300 90;" xml:space="preserve">
<style type="text/css">
	.st0{fill:#891739;}
	.st1{fill:#FFFFFF;stroke:#FFFFFF;stroke-width:0.5;stroke-miterlimit:10;}
	.st2{fill:#FFFFFF;}
	.st3{fill:url(#SVGID_1_);}
	.st4{fill:url(#SVGID_2_);}
	.st5{fill:#F05722;}
	.st6{font-family:'CambriaMath';}
	.st7{font-size:14.6428px;}
</style>
<polygon class="st0" points="77.4,23.1 39.4,1.1 1.3,23.1 1.3,67 39.4,88.9 77.4,67 "/>
<path class="st1" d="M74.1,29.1v31.8c0,2.6-1.4,4.9-3.6,6.2L43,83c-2.2,1.3-5,1.3-7.2,0L8.3,67.1c-2.2-1.3-3.6-3.7-3.6-6.2V29.1
	c0-2.6,1.4-4.9,3.6-6.2L35.8,7c2.2-1.3,5-1.3,7.2,0l27.5,15.9C72.7,24.2,74.1,26.6,74.1,29.1z M5.1,60.9c0,2.4,1.3,4.7,3.4,5.9
	L36,82.7c2.1,1.2,4.7,1.2,6.8,0l27.5-15.9c2.1-1.2,3.4-3.5,3.4-5.9V29.1c0-2.4-1.3-4.7-3.4-5.9L42.8,7.4c-2.1-1.2-4.7-1.2-6.8,0
	L8.5,23.2c-2.1,1.2-3.4,3.5-3.4,5.9V60.9z"/>
<circle class="st2" cx="51.2" cy="23.2" r="4.9"/>
<circle class="st2" cx="59.3" cy="28.3" r="2.2"/>
<circle class="st2" cx="44" cy="31.4" r="2.2"/>
<circle class="st2" cx="53" cy="35.4" r="2.2"/>
<circle class="st2" cx="45.2" cy="44.3" r="2.2"/>
<circle class="st2" cx="52.2" cy="50.9" r="2.2"/>
<circle class="st2" cx="26" cy="27.7" r="2.2"/>
<circle class="st2" cx="21.7" cy="36.6" r="2.2"/>
<circle class="st2" cx="28.8" cy="43.1" r="2.2"/>
<circle class="st2" cx="29.9" cy="56" r="2.2"/>
<circle class="st2" cx="47.9" cy="59.7" r="2.2"/>
<circle class="st2" cx="20.9" cy="51.8" r="2.2"/>
<circle class="st2" cx="14.5" cy="59" r="2.2"/>
<circle class="st2" cx="22.6" cy="64.1" r="4.8"/>
<circle class="st2" cx="39.9" cy="52.3" r="4.8"/>
<circle class="st2" cx="34" cy="35.1" r="4.8"/>
<g>
	
		<linearGradient id="SVGID_1_" gradientUnits="userSpaceOnUse" x1="33.6604" y1="49.1557" x2="47.732" y2="16.0052" gradientTransform="matrix(0.9999 1.220841e-02 -1.220841e-02 0.9999 0.4182 -1.0458)">
		<stop  offset="0" style="stop-color:#FFCC02"/>
		<stop  offset="0.4609" style="stop-color:#F37920"/>
		<stop  offset="1" style="stop-color:#F05722"/>
	</linearGradient>
	<path class="st3" d="M59.4,25.2L59.4,25.2c-1.1,0-1.9,0.5-2.5,1.2L56.2,26c0.5-0.9,0.8-1.8,0.7-2.9c0-3.1-2.6-5.6-5.6-5.6l-0.1,0
		c-3.1,0-5.7,2.6-5.6,5.8c0,1.5,0.6,2.9,1.6,3.9l-1.6,1.9c-0.4-0.3-0.9-0.4-1.4-0.5l-0.1,0c-0.7,0-1.4,0.3-1.9,0.8
		c-0.5,0.5-0.8,1.2-0.8,1.9c0,0.2,0,0.4,0.1,0.5l-2,1.1c-0.8-2.1-2.9-3.7-5.3-3.7c-1.5,0-2.9,0.6-3.9,1.5l-1.9-1.7
		c0.3-0.4,0.5-0.9,0.5-1.5c0-1.5-1.2-2.7-2.7-2.7c-1.5,0-2.7,1.2-2.7,2.7c0,1.5,1.2,2.7,2.7,2.7c0.5,0,1-0.1,1.4-0.4l2,1.7
		c-0.7,0.9-1.1,2.1-1.1,3.3c0,0.1,0,0.3,0,0.4L24.7,36c-0.3-1.4-1.5-2.5-3-2.5c-1.7,0-3.1,1.3-3.1,3c0,1.7,1.3,3.1,3,3.1
		c1.5,0,2.8-1.1,3.1-2.6l3.7-0.5c0.3,1.1,0.9,2,1.7,2.8l-0.5,0.8c-0.3-0.1-0.6-0.1-0.9-0.1c-1.7,0-3.1,1.3-3.1,3
		c0,1.7,1.3,3.1,3,3.1c1.7,0,3.1-1.3,3.1-3c0-1-0.5-1.9-1.2-2.4l0.4-0.7c0.8,0.5,1.8,0.8,2.8,0.8c1.5,0,2.9-0.6,4-1.5l4.7,3.3
		c-0.1,0.2-0.2,0.4-0.3,0.5c-0.3,0.8-0.3,1.6,0,2.4c0.5,1.2,1.6,1.9,2.8,1.9c0.4,0,0.8-0.1,1.2-0.2c0.8-0.3,1.4-0.9,1.7-1.6
		c0.3-0.8,0.3-1.6,0-2.4c-0.1-0.2-0.2-0.5-0.4-0.7l3.9-4.3c0.4,0.2,0.9,0.4,1.5,0.4l0.1,0c0.8,0,1.6-0.3,2.2-0.9
		c0.6-0.6,0.9-1.4,0.9-2.2c0-1.5-1.2-2.8-2.6-3l-0.6-3.7c0.9-0.3,1.8-0.8,2.5-1.5c0.1-0.1,0.2-0.2,0.2-0.3l0.8,0.5
		c-0.1,0.3-0.1,0.6-0.1,0.9c0,1.7,1.4,3,3,3l0.1,0c0.8,0,1.6-0.3,2.2-0.9c0.6-0.6,0.9-1.4,0.9-2.2C62.4,26.6,61,25.2,59.4,25.2z
		 M21.7,38.6c-1.1,0-2-0.9-1.9-2c0-1.1,0.9-2,2-1.9c1.1,0,2,0.9,1.9,2C23.7,37.7,22.8,38.6,21.7,38.6z M28.7,45.1
		c-1.1,0-2-0.9-1.9-2c0-1.1,0.9-2,2-1.9c1.1,0,2,0.9,1.9,2C30.7,44.2,29.8,45.1,28.7,45.1z M42.9,30.2c0.3-0.3,0.7-0.5,1.2-0.5
		c0.9,0,1.6,0.7,1.6,1.6c0,0.4-0.2,0.8-0.5,1.1C44.9,32.8,44.5,33,44,33l0,0.6l0-0.6c-0.9,0-1.6-0.7-1.6-1.6
		C42.4,31,42.6,30.5,42.9,30.2z M24.4,27.7c0-0.9,0.7-1.6,1.6-1.6c0.9,0,1.6,0.7,1.6,1.6c0,0.9-0.7,1.6-1.6,1.6
		C25.1,29.3,24.4,28.5,24.4,27.7z M33.9,39.7c-2.5,0-4.6-2.1-4.5-4.7c0-2.5,2.1-4.6,4.7-4.5c2.5,0,4.6,2.1,4.5,4.7
		C38.6,37.7,36.5,39.7,33.9,39.7z M47,45c-0.2,0.5-0.6,0.9-1.1,1.1c-0.2,0.1-0.5,0.1-0.8,0.1c-0.8,0-1.5-0.5-1.8-1.2
		c-0.2-0.5-0.2-1,0-1.5c0.2-0.5,0.6-0.9,1.1-1.1c0.2-0.1,0.5-0.1,0.8-0.1c0.8,0,1.5,0.5,1.8,1.2C47.2,44,47.2,44.6,47,45z M55,35.4
		c0,1.1-0.9,2-1.9,2l0,0c-1.1,0-1.9-0.9-1.9-1.9c0-0.5,0.2-1,0.6-1.4c0.4-0.4,0.9-0.6,1.4-0.6C54.1,33.5,55,34.4,55,35.4z
		 M52.3,32.4c-0.6,0.1-1.1,0.4-1.5,0.8c-0.6,0.6-0.9,1.4-0.9,2.2c0,0.7,0.3,1.4,0.7,1.9l-3.8,4.3c-0.5-0.3-1-0.5-1.6-0.5
		c-0.4,0-0.8,0.1-1.2,0.2c-0.2,0.1-0.4,0.2-0.6,0.3l-4.8-3.3c0.7-0.9,1.1-2,1.1-3.3c0-0.3,0-0.7-0.1-1l2.2-1.2
		c0.5,0.7,1.3,1.1,2.2,1.1l0.1,0c0.7,0,1.4-0.3,1.9-0.8c0.5-0.5,0.8-1.2,0.8-1.9c0-0.5-0.2-1-0.4-1.4l1.7-2c0.9,0.6,2,1,3.2,1l0.1,0
		c0.1,0,0.3,0,0.4,0L52.3,32.4z M51.3,27.8l-0.1,0c-2.5,0-4.5-2.1-4.5-4.5c0-2.5,2-4.6,4.5-4.7l0.1,0c2.5,0,4.5,2.1,4.5,4.5
		c0,1.2-0.5,2.4-1.3,3.3C53.7,27.3,52.5,27.8,51.3,27.8z M60.8,29.6c-0.4,0.4-0.9,0.6-1.4,0.6l0,0c-1.1,0-1.9-0.9-1.9-1.9
		c0-1.1,0.9-2,2-2c1.1,0,1.9,0.9,1.9,1.9C61.3,28.8,61.1,29.3,60.8,29.6z"/>
</g>
<g>
	
		<linearGradient id="SVGID_2_" gradientUnits="userSpaceOnUse" x1="216.5694" y1="153.1273" x2="225.336" y2="120.2928" gradientTransform="matrix(-0.9998 -1.834572e-02 1.834572e-02 -0.9998 251.6378 196.1116)">
		<stop  offset="0" style="stop-color:#FDBF0F"/>
		<stop  offset="0.3659" style="stop-color:#FBB016"/>
		<stop  offset="1" style="stop-color:#F16622"/>
	</linearGradient>
	<path class="st4" d="M14.5,62L14.5,62c1.1,0,1.9-0.5,2.5-1.2l0.7,0.4c-0.5,0.9-0.8,1.8-0.8,2.9c0,3.1,2.5,5.6,5.6,5.7l0.1,0
		c3.1,0,5.7-2.6,5.7-5.7c0-1.5-0.6-2.9-1.6-3.9l1.7-1.9c0.4,0.3,0.9,0.4,1.4,0.5l0.1,0c0.7,0,1.4-0.3,1.9-0.8
		c0.5-0.5,0.8-1.2,0.8-1.9c0-0.2,0-0.4-0.1-0.5l2-1.1c0.8,2.1,2.8,3.7,5.2,3.7c1.5,0,2.9-0.5,3.9-1.5l1.9,1.7
		c-0.3,0.4-0.5,0.9-0.5,1.5c0,1.5,1.2,2.7,2.7,2.8c1.5,0,2.7-1.2,2.8-2.7c0-1.5-1.2-2.7-2.7-2.8c-0.5,0-1,0.1-1.5,0.4l-2-1.7
		c0.7-0.9,1.1-2.1,1.1-3.3c0-0.1,0-0.3,0-0.4l3.6-0.5c0.3,1.4,1.5,2.5,3,2.5c1.7,0,3.1-1.3,3.1-3c0-1.7-1.3-3.1-3-3.1
		c-1.5,0-2.8,1.1-3.1,2.5l-3.7,0.5c-0.3-1.1-0.9-2-1.7-2.8l0.5-0.8c0.3,0.1,0.6,0.1,0.9,0.1c1.7,0,3.1-1.3,3.1-3
		c0-1.7-1.3-3.1-3-3.1c-1.7,0-3.1,1.3-3.1,3c0,1,0.4,1.9,1.2,2.5l-0.4,0.7c-0.8-0.5-1.8-0.8-2.8-0.8c-1.5,0-2.9,0.6-4,1.5l-4.7-3.3
		c0.1-0.2,0.2-0.4,0.3-0.5c0.3-0.8,0.3-1.6,0-2.4c-0.5-1.2-1.6-1.9-2.8-2c-0.4,0-0.8,0.1-1.2,0.2c-0.8,0.3-1.4,0.9-1.7,1.6
		c-0.3,0.8-0.3,1.6,0,2.4c0.1,0.2,0.2,0.5,0.4,0.7l-3.9,4.3c-0.4-0.2-0.9-0.4-1.5-0.4l-0.1,0c-0.8,0-1.6,0.3-2.2,0.9
		c-0.6,0.6-0.9,1.4-0.9,2.2c0,1.5,1.1,2.8,2.6,3l0.6,3.7c-0.9,0.3-1.8,0.8-2.5,1.5c-0.1,0.1-0.2,0.2-0.3,0.3l-0.8-0.5
		c0.1-0.3,0.1-0.6,0.1-0.9c0-1.7-1.4-3-3-3.1l-0.1,0c-0.8,0-1.6,0.3-2.2,0.9c-0.6,0.6-0.9,1.4-0.9,2.2C11.5,60.6,12.8,62,14.5,62z
		 M52.2,48.9c1.1,0,2,0.9,1.9,2c0,1.1-0.9,2-2,1.9c-1.1,0-2-0.9-1.9-2C50.2,49.8,51.1,48.9,52.2,48.9z M45.3,42.4c1.1,0,2,0.9,1.9,2
		c0,1.1-0.9,2-2,1.9s-2-0.9-1.9-2C43.3,43.2,44.2,42.3,45.3,42.4z M31,57.1c-0.3,0.3-0.7,0.5-1.2,0.5c-0.9,0-1.6-0.7-1.6-1.6
		c0-0.4,0.2-0.8,0.5-1.1c0.3-0.3,0.7-0.5,1.1-0.5l0.1-0.6l0,0.6c0.9,0,1.6,0.7,1.6,1.6C31.5,56.4,31.3,56.8,31,57.1z M49.5,59.8
		c0,0.9-0.7,1.6-1.6,1.6c-0.9,0-1.6-0.7-1.6-1.6c0-0.9,0.7-1.6,1.6-1.6C48.8,58.2,49.5,58.9,49.5,59.8z M40,47.7
		c2.5,0,4.6,2.1,4.5,4.7c0,2.5-2.1,4.6-4.7,4.5c-2.5,0-4.6-2.1-4.5-4.7C35.4,49.7,37.5,47.6,40,47.7z M27,42.3
		c0.2-0.5,0.6-0.9,1.1-1c0.2-0.1,0.5-0.1,0.8-0.1c0.8,0,1.5,0.5,1.8,1.3c0.2,0.5,0.2,1,0,1.5c-0.2,0.5-0.6,0.9-1.1,1
		C29.3,45,29,45,28.8,45c-0.8,0-1.5-0.5-1.8-1.3C26.8,43.3,26.8,42.7,27,42.3z M18.9,51.8c0-1.1,0.9-2,2-2l0,0c1.1,0,1.9,0.9,1.9,2
		c0,0.5-0.2,1-0.6,1.4c-0.4,0.4-0.9,0.6-1.4,0.6C19.8,53.8,18.9,52.9,18.9,51.8z M21.6,54.8c0.6-0.1,1.1-0.4,1.5-0.8
		c0.6-0.6,0.9-1.4,0.9-2.2c0-0.7-0.3-1.4-0.7-1.9l3.9-4.3c0.5,0.3,1,0.5,1.6,0.5c0.4,0,0.8-0.1,1.2-0.2c0.2-0.1,0.4-0.2,0.6-0.3
		l4.8,3.3c-0.7,0.9-1.1,2-1.1,3.2c0,0.3,0,0.7,0.1,1l-2.2,1.2c-0.5-0.7-1.3-1.1-2.1-1.1l-0.1,0c-0.7,0-1.4,0.3-1.9,0.8
		c-0.5,0.5-0.8,1.2-0.8,1.9c0,0.5,0.2,1,0.4,1.4l-1.7,2c-0.9-0.6-2-1-3.2-1.1l-0.1,0c-0.1,0-0.3,0-0.4,0L21.6,54.8z M22.6,59.5
		l0.1,0c2.5,0,4.5,2.1,4.5,4.6c0,2.5-2,4.6-4.6,4.6l-0.1,0c-2.5,0-4.5-2.1-4.5-4.6c0-1.2,0.5-2.4,1.3-3.3
		C20.2,60,21.4,59.5,22.6,59.5z M13.1,57.6c0.4-0.4,0.9-0.6,1.4-0.6l0,0c1.1,0,1.9,0.9,1.9,2c0,1.1-0.9,2-2,2c-1.1,0-1.9-0.9-1.9-2
		C12.6,58.4,12.8,58,13.1,57.6z"/>
</g>
<g>
	<path class="st5" d="M299.6,52c0,1.1-0.9,2-2,2l-216.3-2c-1.1,0-2-0.9-2-2V25.5c0-1.1,0.9-2,2-2l216.3,2c1.1,0,2,0.9,2,2V52z"/>
</g>
<g>
	<g>
		<path class="st2" d="M88.5,48.6c-0.8,0-1.5-0.1-2-0.4c-0.5-0.3-0.9-0.7-1.2-1.2s-0.4-1.2-0.5-1.9s-0.1-1.6-0.1-2.5v-5.8
			c0-1.2,0.1-2.2,0.3-3.1c0.2-0.9,0.6-1.6,1.1-2.1c0.6-0.5,1.4-0.7,2.5-0.7c0.8,0,1.4,0.1,1.9,0.4c0.5,0.3,0.8,0.6,1.1,1.1
			c0.2,0.5,0.4,1,0.5,1.7c0.1,0.7,0.1,1.4,0.1,2.2v1.2h-2.3v-1.5c0-0.7,0-1.2-0.1-1.7c0-0.4-0.2-0.8-0.3-1c-0.2-0.2-0.5-0.3-0.9-0.3
			c-0.4,0-0.8,0.1-1,0.4c-0.2,0.3-0.4,0.6-0.4,1.1C87,34.8,87,35.3,87,36v7.4c0,0.7,0,1.3,0.1,1.8c0.1,0.5,0.2,0.8,0.4,1.1
			s0.5,0.4,1,0.4c0.4,0,0.7-0.1,0.9-0.4c0.2-0.2,0.3-0.6,0.4-1.1c0.1-0.5,0.1-1,0.1-1.7v-1.7h2.3v1.1c0,0.9,0,1.6-0.1,2.3
			c-0.1,0.7-0.3,1.3-0.5,1.8s-0.6,0.9-1.1,1.2C89.9,48.4,89.3,48.6,88.5,48.6z"/>
		<path class="st2" d="M98.6,48.6c-0.8,0-1.5-0.1-2-0.4c-0.5-0.3-0.9-0.7-1.2-1.2c-0.3-0.5-0.5-1.1-0.6-1.9
			c-0.1-0.7-0.1-1.5-0.1-2.4v-6.1c0-1.1,0.1-2.1,0.3-2.9c0.2-0.9,0.6-1.5,1.1-2c0.6-0.5,1.4-0.7,2.4-0.7c0.8,0,1.4,0.1,1.9,0.4
			c0.5,0.3,0.9,0.7,1.2,1.2c0.3,0.5,0.5,1.1,0.6,1.8c0.1,0.7,0.2,1.4,0.2,2.3v6.1c0,0.9,0,1.7-0.1,2.4s-0.3,1.3-0.5,1.9
			s-0.6,0.9-1.2,1.2C100.1,48.4,99.4,48.6,98.6,48.6z M98.6,46.6c0.4,0,0.7-0.1,0.9-0.4c0.2-0.3,0.3-0.7,0.4-1.2
			c0.1-0.5,0.1-1.1,0.1-1.7V36c0-0.6,0-1.2-0.1-1.7s-0.2-0.9-0.4-1.1s-0.5-0.4-0.9-0.4c-0.4,0-0.8,0.1-1,0.4
			c-0.2,0.3-0.4,0.6-0.4,1.1c-0.1,0.5-0.1,1-0.1,1.7v7.3c0,0.7,0,1.2,0.1,1.7c0.1,0.5,0.2,0.9,0.4,1.2
			C97.9,46.5,98.2,46.6,98.6,46.6z"/>
		<path class="st2" d="M105.5,48.4V31.1h2.4v1.8c0.2-0.5,0.5-1,1-1.4c0.5-0.4,1.1-0.6,1.8-0.6c0.9,0,1.5,0.3,2,0.9
			c0.5,0.6,0.7,1.5,0.7,2.8v13.8h-2.4V34.6c0-0.6-0.1-1.1-0.4-1.3c-0.3-0.3-0.6-0.4-1.1-0.4c-0.3,0-0.6,0.1-0.9,0.2
			c-0.3,0.1-0.5,0.4-0.6,0.6c-0.1,0.3-0.2,0.7-0.2,1.1v13.5H105.5z"/>
		<path class="st2" d="M119.9,48.6c-1.2,0-2.2-0.4-2.8-1.2c-0.6-0.8-1-2.1-1-3.8v-1.3h2.3v1.3c0,1,0.1,1.7,0.3,2.2
			c0.2,0.5,0.6,0.8,1,0.8c0.5,0,0.8-0.2,1.1-0.5c0.2-0.3,0.3-0.9,0.3-1.7c0-0.4-0.1-0.8-0.2-1.2c-0.1-0.4-0.3-0.8-0.6-1.2
			c-0.3-0.4-0.6-0.8-1-1.2l-1.2-1.2c-0.7-0.7-1.3-1.4-1.7-2.2s-0.6-1.6-0.6-2.5c0-1.4,0.3-2.4,1-3.1s1.6-1,2.7-1
			c0.8,0,1.4,0.2,2,0.5c0.5,0.3,0.9,0.9,1.2,1.7s0.4,1.9,0.4,3.2v0.8h-2.2v-1.2c0-1-0.1-1.7-0.3-2.2c-0.2-0.5-0.5-0.8-1-0.8
			c-0.5,0-0.8,0.1-1.1,0.4s-0.4,0.8-0.4,1.5c0,0.4,0,0.7,0.1,1.1c0.1,0.4,0.3,0.7,0.5,1.1s0.5,0.7,0.9,1.1l1.2,1.2
			c0.8,0.7,1.4,1.5,1.8,2.4c0.4,0.9,0.6,1.8,0.6,2.7c0,1.3-0.3,2.3-0.9,3.1C122.1,48.2,121.2,48.6,119.9,48.6z"/>
		<path class="st2" d="M129,48.5c-0.7,0-1.3-0.1-1.7-0.3c-0.4-0.2-0.6-0.5-0.8-0.9c-0.1-0.4-0.2-0.9-0.2-1.6V32.9h-1.6v-1.8h1.6
			v-3.1h2.4v3.1h1.9v1.8h-1.9v12.6c0,0.3,0,0.5,0.1,0.7c0.1,0.1,0.2,0.2,0.5,0.3c0.3,0,0.7,0.1,1.3,0.1v1.9H129z"/>
		<path class="st2" d="M132.9,48.4V31.1h2.4V33c0.2-0.7,0.5-1.2,1-1.6c0.5-0.4,1.1-0.6,1.9-0.6c0,0,0,0.1,0,0.3s0,0.4,0,0.7
			c0,0.3,0,0.6,0,1c-0.4,0-0.7,0-1.1,0.1s-0.7,0.2-1,0.4c-0.3,0.2-0.6,0.5-0.8,0.9v14.1H132.9z"/>
		<path class="st2" d="M143,48.6c-0.5,0-1-0.1-1.4-0.4c-0.4-0.3-0.8-0.7-1.1-1.2c-0.3-0.6-0.4-1.3-0.4-2.2V31.1h2.4v13.4
			c0,0.7,0.1,1.2,0.4,1.5s0.6,0.5,1.1,0.5c0.6,0,1-0.2,1.3-0.6c0.3-0.4,0.4-0.9,0.4-1.5V31.1h2.4v17.3h-2.4v-1.8
			c-0.2,0.5-0.5,1-0.9,1.4C144.3,48.4,143.7,48.6,143,48.6z"/>
		<path class="st2" d="M155,48.6c-0.8,0-1.5-0.1-2-0.4c-0.5-0.3-0.9-0.7-1.2-1.2s-0.4-1.2-0.5-1.9s-0.1-1.6-0.1-2.5v-5.8
			c0-1.2,0.1-2.2,0.3-3.1c0.2-0.9,0.6-1.6,1.1-2.1c0.6-0.5,1.4-0.7,2.5-0.7c0.8,0,1.4,0.1,1.9,0.4c0.5,0.3,0.8,0.6,1.1,1.1
			s0.4,1,0.5,1.7c0.1,0.7,0.1,1.4,0.1,2.2v1.2h-2.3v-1.5c0-0.7,0-1.2-0.1-1.7c0-0.4-0.2-0.8-0.3-1s-0.5-0.3-0.9-0.3
			c-0.4,0-0.8,0.1-1,0.4c-0.2,0.3-0.4,0.6-0.4,1.1c-0.1,0.5-0.1,1-0.1,1.7v7.4c0,0.7,0,1.3,0.1,1.8s0.2,0.8,0.4,1.1
			c0.2,0.2,0.5,0.4,1,0.4c0.4,0,0.7-0.1,0.9-0.4c0.2-0.2,0.3-0.6,0.4-1.1c0.1-0.5,0.1-1,0.1-1.7v-1.7h2.3v1.1c0,0.9,0,1.6-0.1,2.3
			c-0.1,0.7-0.3,1.3-0.5,1.8s-0.6,0.9-1.1,1.2C156.4,48.4,155.7,48.6,155,48.6z"/>
		<path class="st2" d="M164.5,48.5c-0.7,0-1.3-0.1-1.7-0.3c-0.4-0.2-0.6-0.5-0.8-0.9c-0.1-0.4-0.2-0.9-0.2-1.6V32.9h-1.6v-1.8h1.6
			v-3.1h2.4v3.1h1.9v1.8h-1.9v12.6c0,0.3,0,0.5,0.1,0.7c0.1,0.1,0.3,0.2,0.5,0.3c0.3,0,0.7,0.1,1.3,0.1v1.9H164.5z"/>
		<path class="st2" d="M168.4,29.5v-2.2h2.4v2.2H168.4z M168.4,48.4V31.1h2.4v17.3H168.4z"/>
		<path class="st2" d="M177.8,48.6c-0.8,0-1.5-0.1-2-0.4c-0.5-0.3-0.9-0.7-1.2-1.2c-0.3-0.5-0.5-1.1-0.6-1.9
			c-0.1-0.7-0.2-1.5-0.2-2.4v-6.1c0-1.1,0.1-2.1,0.3-2.9c0.2-0.9,0.6-1.5,1.1-2c0.6-0.5,1.4-0.7,2.4-0.7c0.8,0,1.4,0.1,1.9,0.4
			s0.9,0.7,1.2,1.2c0.3,0.5,0.5,1.1,0.6,1.8c0.1,0.7,0.2,1.4,0.2,2.3v6.1c0,0.9,0,1.7-0.1,2.4c-0.1,0.7-0.3,1.3-0.5,1.9
			s-0.6,0.9-1.2,1.2C179.3,48.4,178.6,48.6,177.8,48.6z M177.8,46.6c0.4,0,0.7-0.1,0.9-0.4c0.2-0.3,0.3-0.7,0.4-1.2
			c0.1-0.5,0.1-1.1,0.1-1.7V36c0-0.6,0-1.2-0.1-1.7s-0.2-0.9-0.4-1.1c-0.2-0.3-0.5-0.4-0.9-0.4c-0.4,0-0.8,0.1-1,0.4
			c-0.2,0.3-0.4,0.6-0.4,1.1s-0.1,1-0.1,1.7v7.3c0,0.7,0,1.2,0.1,1.7c0.1,0.5,0.2,0.9,0.4,1.2C177,46.5,177.3,46.6,177.8,46.6z"/>
		<path class="st2" d="M184.7,48.4V31.1h2.4v1.8c0.2-0.5,0.5-1,1-1.4c0.5-0.4,1.1-0.6,1.8-0.6c0.9,0,1.5,0.3,2,0.9
			c0.5,0.6,0.7,1.5,0.7,2.8v13.8h-2.4V34.6c0-0.6-0.1-1.1-0.4-1.3c-0.3-0.3-0.6-0.4-1.1-0.4c-0.3,0-0.6,0.1-0.9,0.2
			c-0.3,0.1-0.5,0.4-0.6,0.6c-0.2,0.3-0.2,0.7-0.2,1.1v13.5H184.7z"/>
		<path class="st2" d="M195.9,51.5V31.1h2.4v1.4c0.2-0.6,0.6-1,1-1.2c0.4-0.2,0.9-0.4,1.4-0.4c0.8,0,1.5,0.2,1.9,0.7s0.7,1.2,0.8,2
			c0.1,0.8,0.2,1.8,0.2,2.8v6.3c0,1.1-0.1,2.1-0.2,3c-0.2,0.9-0.5,1.6-1,2.1c-0.5,0.5-1.2,0.8-2.1,0.8c-0.4,0-0.8-0.1-1.2-0.4
			c-0.4-0.3-0.6-0.6-0.8-1v4.3H195.9z M199.8,46.6c0.6,0,0.9-0.3,1.1-0.9c0.2-0.6,0.3-1.5,0.3-2.7v-7c0-0.6,0-1.2-0.1-1.7
			s-0.2-0.9-0.4-1.1c-0.2-0.3-0.5-0.4-0.9-0.4c-0.3,0-0.6,0.1-0.9,0.2c-0.2,0.2-0.4,0.5-0.6,0.9c-0.1,0.5-0.2,1.2-0.2,2.1v7.1
			c0,1.1,0.1,2,0.3,2.6C198.7,46.3,199.1,46.6,199.8,46.6z"/>
		<path class="st2" d="M206.7,48.4V31.1h2.4V33c0.2-0.7,0.5-1.2,1-1.6c0.5-0.4,1.1-0.6,1.9-0.6c0,0,0,0.1,0,0.3s0,0.4,0,0.7
			c0,0.3,0,0.6,0,1c-0.4,0-0.7,0-1.1,0.1c-0.4,0.1-0.7,0.2-1,0.4c-0.3,0.2-0.6,0.5-0.8,0.9v14.1H206.7z"/>
		<path class="st2" d="M217.7,48.6c-0.8,0-1.5-0.1-2-0.4c-0.5-0.3-0.9-0.7-1.2-1.2c-0.3-0.5-0.5-1.1-0.6-1.9
			c-0.1-0.7-0.2-1.5-0.2-2.4v-6.1c0-1.1,0.1-2.1,0.3-2.9c0.2-0.9,0.6-1.5,1.1-2c0.6-0.5,1.4-0.7,2.4-0.7c0.8,0,1.4,0.1,1.9,0.4
			s0.9,0.7,1.2,1.2c0.3,0.5,0.5,1.1,0.6,1.8c0.1,0.7,0.2,1.4,0.2,2.3v6.1c0,0.9,0,1.7-0.1,2.4c-0.1,0.7-0.3,1.3-0.5,1.9
			s-0.6,0.9-1.2,1.2C219.2,48.4,218.5,48.6,217.7,48.6z M217.7,46.6c0.4,0,0.7-0.1,0.9-0.4c0.2-0.3,0.3-0.7,0.4-1.2
			c0.1-0.5,0.1-1.1,0.1-1.7V36c0-0.6,0-1.2-0.1-1.7s-0.2-0.9-0.4-1.1c-0.2-0.3-0.5-0.4-0.9-0.4c-0.4,0-0.8,0.1-1,0.4
			c-0.2,0.3-0.4,0.6-0.4,1.1s-0.1,1-0.1,1.7v7.3c0,0.7,0,1.2,0.1,1.7c0.1,0.5,0.2,0.9,0.4,1.2C216.9,46.5,217.3,46.6,217.7,46.6z"/>
		<path class="st2" d="M227.3,48.5c-0.9,0-1.5-0.3-1.9-0.8s-0.7-1.2-0.8-2s-0.2-1.8-0.2-2.9v-6.5c0-1,0.1-2,0.3-2.8
			c0.2-0.8,0.5-1.5,1-1.9c0.5-0.5,1.2-0.7,2-0.7c0.5,0,0.9,0.1,1.2,0.4s0.6,0.6,0.8,1v-4.4h2.4v20.5h-2.4v-1.5c-0.2,0.6-0.6,1-1,1.2
			C228.3,48.4,227.8,48.5,227.3,48.5z M228.1,46.6c0.4,0,0.7-0.1,0.9-0.3s0.4-0.5,0.5-1c0.1-0.5,0.2-1.2,0.2-2.1v-6.9
			c0-1.1-0.1-2-0.3-2.5s-0.6-0.9-1.2-0.9c-0.6,0-1,0.3-1.2,0.8s-0.3,1.4-0.3,2.6v7c0,0.7,0,1.2,0.1,1.7s0.2,0.9,0.4,1.1
			C227.4,46.4,227.7,46.6,228.1,46.6z"/>
		<path class="st2" d="M238.2,48.6c-0.5,0-1-0.1-1.4-0.4c-0.4-0.3-0.8-0.7-1.1-1.2c-0.3-0.6-0.4-1.3-0.4-2.2V31.1h2.4v13.4
			c0,0.7,0.1,1.2,0.4,1.5s0.6,0.5,1.1,0.5c0.6,0,1-0.2,1.3-0.6c0.3-0.4,0.4-0.9,0.4-1.5V31.1h2.4v17.3h-2.4v-1.8
			c-0.2,0.5-0.5,1-0.9,1.4C239.5,48.4,238.9,48.6,238.2,48.6z"/>
		<path class="st2" d="M250.2,48.6c-0.8,0-1.5-0.1-2-0.4c-0.5-0.3-0.9-0.7-1.2-1.2s-0.4-1.2-0.5-1.9s-0.1-1.6-0.1-2.5v-5.8
			c0-1.2,0.1-2.2,0.3-3.1c0.2-0.9,0.6-1.6,1.1-2.1c0.6-0.5,1.4-0.7,2.5-0.7c0.8,0,1.4,0.1,1.9,0.4c0.5,0.3,0.8,0.6,1.1,1.1
			s0.4,1,0.5,1.7c0.1,0.7,0.1,1.4,0.1,2.2v1.2h-2.3v-1.5c0-0.7,0-1.2-0.1-1.7c0-0.4-0.2-0.8-0.3-1s-0.5-0.3-0.9-0.3
			c-0.4,0-0.8,0.1-1,0.4c-0.2,0.3-0.4,0.6-0.4,1.1c-0.1,0.5-0.1,1-0.1,1.7v7.4c0,0.7,0,1.3,0.1,1.8s0.2,0.8,0.4,1.1
			c0.2,0.2,0.5,0.4,1,0.4c0.4,0,0.7-0.1,0.9-0.4c0.2-0.2,0.3-0.6,0.4-1.1c0.1-0.5,0.1-1,0.1-1.7v-1.7h2.3v1.1c0,0.9,0,1.6-0.1,2.3
			c-0.1,0.7-0.3,1.3-0.5,1.8s-0.6,0.9-1.1,1.2C251.6,48.4,251,48.6,250.2,48.6z"/>
		<path class="st2" d="M259.7,48.5c-0.7,0-1.3-0.1-1.7-0.3c-0.4-0.2-0.6-0.5-0.8-0.9c-0.1-0.4-0.2-0.9-0.2-1.6V32.9h-1.6v-1.8h1.6
			v-3.1h2.4v3.1h1.9v1.8h-1.9v12.6c0,0.3,0,0.5,0.1,0.7c0.1,0.1,0.3,0.2,0.5,0.3c0.3,0,0.7,0.1,1.3,0.1v1.9H259.7z"/>
		<path class="st2" d="M266.8,48.6c-1.2,0-2.2-0.4-2.8-1.2c-0.6-0.8-1-2.1-1-3.8v-1.3h2.3v1.3c0,1,0.1,1.7,0.3,2.2
			c0.2,0.5,0.6,0.8,1,0.8s0.8-0.2,1.1-0.5c0.2-0.3,0.3-0.9,0.3-1.7c0-0.4-0.1-0.8-0.2-1.2c-0.1-0.4-0.3-0.8-0.6-1.2
			c-0.3-0.4-0.6-0.8-1-1.2l-1.2-1.2c-0.7-0.7-1.3-1.4-1.7-2.2c-0.4-0.8-0.6-1.6-0.6-2.5c0-1.4,0.3-2.4,1-3.1s1.6-1,2.7-1
			c0.8,0,1.4,0.2,2,0.5s0.9,0.9,1.2,1.7c0.3,0.8,0.4,1.9,0.4,3.2v0.8h-2.2v-1.2c0-1-0.1-1.7-0.3-2.2s-0.5-0.8-1-0.8
			c-0.5,0-0.8,0.1-1.1,0.4c-0.2,0.3-0.4,0.8-0.4,1.5c0,0.4,0,0.7,0.1,1.1c0.1,0.4,0.3,0.7,0.5,1.1s0.5,0.7,0.9,1.1l1.2,1.2
			c0.8,0.7,1.4,1.5,1.8,2.4c0.4,0.9,0.6,1.8,0.6,2.7c0,1.3-0.3,2.3-0.9,3.1C269,48.2,268,48.6,266.8,48.6z"/>
		<path class="st2" d="M273.1,48.4v-2.3h2v2.3H273.1z"/>
		<path class="st2" d="M281.5,48.5c-1,0-1.8-0.4-2.3-1.2c-0.5-0.8-0.7-1.9-0.7-3.4v-1.7c0-0.8,0.1-1.4,0.4-1.9
			c0.3-0.5,0.6-0.9,1.1-1.3c0.5-0.3,1-0.6,1.7-0.9c0.6-0.3,1.4-0.6,2.1-0.9v-1.3c0-0.7,0-1.3-0.1-1.8c0-0.5-0.2-0.8-0.4-1
			s-0.5-0.3-0.9-0.3c-0.4,0-0.7,0.1-0.9,0.3c-0.2,0.2-0.3,0.6-0.4,1s-0.1,1.1-0.1,1.8v0.6h-2.4v-0.5c0-0.7,0-1.4,0.1-2.1
			c0.1-0.6,0.3-1.2,0.5-1.7c0.3-0.5,0.6-0.8,1.1-1.1c0.5-0.3,1.2-0.4,2-0.4c0.8,0,1.4,0.1,1.9,0.4c0.5,0.3,0.8,0.6,1.1,1.1
			c0.3,0.5,0.4,1.1,0.5,1.8c0.1,0.7,0.1,1.5,0.1,2.5v11.8h-2.4v-1.5c-0.1,0.2-0.2,0.5-0.4,0.7s-0.5,0.5-0.8,0.7S282,48.5,281.5,48.5
			z M282.2,46.6c0.4,0,0.8-0.1,1.1-0.4c0.3-0.3,0.5-0.5,0.6-0.8v-6.6c-0.6,0.3-1.1,0.5-1.5,0.7c-0.4,0.2-0.7,0.4-0.9,0.7
			c-0.2,0.2-0.4,0.5-0.4,0.8c-0.1,0.3-0.1,0.7-0.1,1.2v1.6c0,1,0.1,1.7,0.3,2.1C281.4,46.4,281.7,46.6,282.2,46.6z"/>
		<path class="st2" d="M292.9,48.6c-0.8,0-1.5-0.1-2-0.4c-0.5-0.3-0.9-0.7-1.1-1.2c-0.3-0.5-0.4-1.2-0.5-1.9
			c-0.1-0.7-0.1-1.6-0.1-2.5v-6.1c0-0.8,0.1-1.6,0.2-2.2c0.1-0.7,0.3-1.3,0.6-1.8c0.3-0.5,0.7-0.9,1.2-1.2c0.5-0.3,1.2-0.4,1.9-0.4
			c0.8,0,1.4,0.1,1.9,0.4s0.9,0.7,1.1,1.2c0.2,0.5,0.4,1.1,0.5,1.8c0.1,0.7,0.1,1.5,0.1,2.3v3.3h-5.2v3.4c0,1.1,0.1,1.9,0.2,2.5
			c0.2,0.6,0.6,0.9,1.2,0.9c0.4,0,0.8-0.1,0.9-0.4c0.2-0.3,0.3-0.7,0.3-1.2c0-0.5,0.1-1.1,0.1-1.8v-1.4h2.3v0.7c0,0.9,0,1.7-0.1,2.4
			c-0.1,0.7-0.2,1.4-0.5,1.9c-0.2,0.5-0.6,0.9-1.1,1.2C294.4,48.4,293.8,48.6,292.9,48.6z M291.5,38.2h2.8V36c0-0.7,0-1.3-0.1-1.7
			c0-0.5-0.2-0.8-0.3-1.1s-0.5-0.4-0.9-0.4c-0.5,0-0.8,0.1-1,0.4c-0.2,0.3-0.4,0.7-0.4,1.1c-0.1,0.5-0.1,1.1-0.1,1.7V38.2z"/>
	</g>
</g>
<text transform="matrix(1 0 0 1 79.2334 67.9902)" class="st2 st6 st7">Online Partner for Quality Products</text>
</svg>
