<?xml version="1.0" encoding="utf-8"?>
<!-- Generator: Adobe Illustrator 24.3.0, SVG Export Plug-In . SVG Version: 6.00 Build 0)  -->
<svg version="1.1" id="Layer_1" xmlns="http://www.w3.org/2000/svg" xmlns:xlink="http://www.w3.org/1999/xlink" x="0px" y="0px"
	 viewBox="0 0 220 80" style="enable-background:new 0 0 220 80;" xml:space="preserve">
<style type="text/css">
	.st0{fill:#891739;}
	.st1{fill:#FFFFFF;}
	.st2{fill:url(#SVGID_1_);}
	.st3{fill:url(#SVGID_2_);}
	.st4{fill:#F05722;}
	.st5{font-family:'CambriaMath';}
	.st6{font-size:10.4752px;}
</style>
<polygon class="st0" points="59.2,22.1 30.3,5.4 1.4,22.1 1.4,55.5 30.3,72.2 59.2,55.5 "/>
<path class="st1" d="M56.7,26.7v24.2c0,1.9-1,3.8-2.7,4.7L33,67.7c-1.7,1-3.8,1-5.5,0L6.6,55.7c-1.7-1-2.7-2.8-2.7-4.7V26.7
	c0-1.9,1-3.8,2.7-4.7L27.6,9.9c1.7-1,3.8-1,5.5,0L54,22C55.7,23,56.7,24.8,56.7,26.7z M4.2,50.9c0,1.8,1,3.6,2.6,4.5l20.9,12.1
	c1.6,0.9,3.6,0.9,5.2,0l20.9-12.1c1.6-0.9,2.6-2.6,2.6-4.5V26.7c0-1.8-1-3.6-2.6-4.5L32.9,10.2c-1.6-0.9-3.6-0.9-5.2,0L6.8,22.3
	c-1.6,0.9-2.6,2.6-2.6,4.5V50.9z"/>
<circle class="st1" cx="39.3" cy="22.2" r="3.7"/>
<circle class="st1" cx="45.5" cy="26.1" r="1.7"/>
<circle class="st1" cx="33.8" cy="28.5" r="1.7"/>
<circle class="st1" cx="40.7" cy="31.5" r="1.7"/>
<circle class="st1" cx="34.8" cy="38.3" r="1.7"/>
<circle class="st1" cx="40.1" cy="43.3" r="1.7"/>
<circle class="st1" cx="20.1" cy="25.6" r="1.7"/>
<circle class="st1" cx="16.9" cy="32.4" r="1.7"/>
<circle class="st1" cx="22.3" cy="37.4" r="1.7"/>
<circle class="st1" cx="23.1" cy="47.2" r="1.7"/>
<circle class="st1" cx="36.8" cy="50" r="1.7"/>
<circle class="st1" cx="16.2" cy="44" r="1.7"/>
<circle class="st1" cx="11.4" cy="49.4" r="1.7"/>
<circle class="st1" cx="17.6" cy="53.3" r="3.7"/>
<circle class="st1" cx="30.7" cy="44.4" r="3.7"/>
<circle class="st1" cx="26.2" cy="31.3" r="3.7"/>
<g>
	
		<linearGradient id="SVGID_1_" gradientUnits="userSpaceOnUse" x1="25.9728" y1="41.7387" x2="36.6793" y2="16.5159" gradientTransform="matrix(0.9999 1.220841e-02 -1.220841e-02 0.9999 0.3542 -0.5578)">
		<stop  offset="0" style="stop-color:#FFCC02"/>
		<stop  offset="0.4609" style="stop-color:#F37920"/>
		<stop  offset="1" style="stop-color:#F05722"/>
	</linearGradient>
	<path class="st2" d="M45.5,23.7L45.5,23.7c-0.8,0-1.5,0.4-1.9,0.9l-0.5-0.3c0.4-0.7,0.6-1.4,0.6-2.2c0-2.3-2-4.3-4.3-4.3l-0.1,0
		c-2.4,0-4.3,2-4.3,4.4c0,1.1,0.5,2.2,1.2,3L35,26.7c-0.3-0.2-0.7-0.3-1.1-0.3l-0.1,0c-0.6,0-1.1,0.2-1.4,0.6
		c-0.4,0.4-0.6,0.9-0.6,1.5c0,0.1,0,0.3,0,0.4l-1.6,0.9c-0.6-1.6-2.2-2.8-4-2.8c-1.2,0-2.2,0.4-3,1.2l-1.4-1.3
		c0.2-0.3,0.4-0.7,0.4-1.1c0-1.1-0.9-2.1-2-2.1c-1.1,0-2.1,0.9-2.1,2c0,1.1,0.9,2.1,2,2.1c0.4,0,0.8-0.1,1.1-0.3l1.5,1.3
		c-0.5,0.7-0.8,1.6-0.8,2.5c0,0.1,0,0.2,0,0.3L19.2,32c-0.2-1.1-1.1-1.9-2.3-1.9c-1.3,0-2.4,1-2.4,2.3c0,1.3,1,2.4,2.3,2.4
		c1.2,0,2.1-0.8,2.3-1.9l2.8-0.4c0.2,0.8,0.7,1.6,1.3,2.1l-0.4,0.6c-0.2-0.1-0.4-0.1-0.7-0.1c-1.3,0-2.4,1-2.4,2.3
		c0,1.3,1,2.4,2.3,2.4c1.3,0,2.4-1,2.4-2.3c0-0.8-0.3-1.4-0.9-1.9L24,35c0.6,0.4,1.4,0.6,2.2,0.6c1.2,0,2.2-0.4,3-1.2l3.6,2.5
		c-0.1,0.1-0.2,0.3-0.2,0.4c-0.2,0.6-0.3,1.2,0,1.8c0.4,0.9,1.2,1.5,2.1,1.5c0.3,0,0.6-0.1,0.9-0.2c0.6-0.2,1-0.7,1.3-1.2
		c0.2-0.6,0.3-1.2,0-1.8c-0.1-0.2-0.2-0.4-0.3-0.5l3-3.3c0.3,0.2,0.7,0.3,1.1,0.3l0.1,0c0.6,0,1.2-0.3,1.6-0.7
		c0.4-0.4,0.7-1,0.7-1.7c0-1.2-0.9-2.1-2-2.3l-0.5-2.8c0.7-0.2,1.4-0.6,1.9-1.1c0.1-0.1,0.1-0.1,0.2-0.2l0.6,0.4
		c-0.1,0.2-0.1,0.4-0.1,0.7c0,1.3,1.1,2.3,2.3,2.3l0.1,0c0.6,0,1.2-0.3,1.6-0.7c0.4-0.4,0.7-1,0.7-1.7
		C47.8,24.8,46.8,23.8,45.5,23.7z M16.9,33.9c-0.8,0-1.5-0.7-1.5-1.5c0-0.8,0.7-1.5,1.5-1.5c0.8,0,1.5,0.7,1.5,1.5
		C18.4,33.3,17.7,33.9,16.9,33.9z M22.2,38.9c-0.8,0-1.5-0.7-1.5-1.5c0-0.8,0.7-1.5,1.5-1.5c0.8,0,1.5,0.7,1.5,1.5
		C23.7,38.2,23,38.9,22.2,38.9z M33,27.6c0.2-0.2,0.5-0.4,0.9-0.4c0.7,0,1.2,0.5,1.2,1.2c0,0.3-0.1,0.6-0.3,0.9
		c-0.2,0.2-0.5,0.4-0.9,0.4l0,0.4l0-0.4c-0.7,0-1.2-0.5-1.2-1.2C32.6,28.1,32.7,27.8,33,27.6z M18.9,25.6c0-0.7,0.6-1.2,1.2-1.2
		c0.7,0,1.2,0.6,1.2,1.2c0,0.7-0.6,1.2-1.2,1.2C19.5,26.9,18.9,26.3,18.9,25.6z M26.2,34.8c-1.9,0-3.5-1.6-3.5-3.5
		c0-1.9,1.6-3.5,3.5-3.5c1.9,0,3.5,1.6,3.5,3.5C29.7,33.3,28.1,34.8,26.2,34.8z M36.1,38.9c-0.2,0.4-0.4,0.7-0.8,0.8
		c-0.2,0.1-0.4,0.1-0.6,0.1c-0.6,0-1.1-0.4-1.4-0.9c-0.1-0.4-0.1-0.8,0-1.1c0.2-0.4,0.4-0.7,0.8-0.8c0.2-0.1,0.4-0.1,0.6-0.1
		c0.6,0,1.1,0.4,1.4,0.9C36.2,38.1,36.2,38.5,36.1,38.9z M42.2,31.5c0,0.8-0.7,1.5-1.5,1.5l0,0c-0.8,0-1.5-0.7-1.5-1.5
		c0-0.4,0.1-0.8,0.4-1.1c0.3-0.3,0.7-0.4,1.1-0.5C41.5,30.1,42.2,30.7,42.2,31.5z M40.2,29.3c-0.4,0.1-0.8,0.3-1.2,0.6
		c-0.4,0.4-0.7,1-0.7,1.7c0,0.6,0.2,1.1,0.6,1.5L36,36.3c-0.4-0.2-0.8-0.4-1.2-0.4c-0.3,0-0.6,0.1-0.9,0.2c-0.2,0.1-0.3,0.1-0.4,0.2
		l-3.7-2.5c0.5-0.7,0.8-1.5,0.8-2.5c0-0.3,0-0.5-0.1-0.8l1.7-0.9c0.4,0.5,1,0.9,1.6,0.9l0.1,0c0.5,0,1.1-0.2,1.4-0.6
		c0.4-0.4,0.6-0.9,0.6-1.5c0-0.4-0.1-0.8-0.3-1.1l1.3-1.5c0.7,0.5,1.5,0.8,2.4,0.8l0.1,0c0.1,0,0.2,0,0.3,0L40.2,29.3z M39.4,25.7
		L39.4,25.7c-2,0-3.5-1.6-3.5-3.5c0-1.9,1.5-3.5,3.5-3.5l0.1,0c1.9,0,3.4,1.6,3.5,3.5c0,0.9-0.3,1.8-1,2.5
		C41.2,25.4,40.3,25.7,39.4,25.7z M46.6,27.1c-0.3,0.3-0.7,0.4-1.1,0.5l0,0c-0.8,0-1.5-0.7-1.5-1.5c0-0.8,0.7-1.5,1.5-1.5
		c0.8,0,1.5,0.7,1.5,1.5C47,26.5,46.9,26.8,46.6,27.1z"/>
</g>
<g>
	
		<linearGradient id="SVGID_2_" gradientUnits="userSpaceOnUse" x1="145.292" y1="148.4564" x2="151.9621" y2="123.474" gradientTransform="matrix(-0.9998 -1.834572e-02 1.834572e-02 -0.9998 171.7363 185.3786)">
		<stop  offset="0" style="stop-color:#FDBF0F"/>
		<stop  offset="0.3659" style="stop-color:#FBB016"/>
		<stop  offset="1" style="stop-color:#F16622"/>
	</linearGradient>
	<path class="st3" d="M11.4,51.8L11.4,51.8c0.8,0,1.5-0.4,1.9-0.9l0.5,0.3c-0.4,0.7-0.6,1.4-0.6,2.2c0,2.3,1.9,4.3,4.3,4.3l0.1,0
		c2.4,0,4.3-2,4.3-4.4c0-1.1-0.5-2.2-1.2-3l1.3-1.5c0.3,0.2,0.7,0.3,1.1,0.3l0.1,0c0.6,0,1.1-0.2,1.5-0.6c0.4-0.4,0.6-0.9,0.6-1.5
		c0-0.1,0-0.3,0-0.4l1.6-0.9c0.6,1.6,2.2,2.8,4,2.8c1.2,0,2.2-0.4,3-1.1l1.4,1.3c-0.2,0.3-0.4,0.7-0.4,1.1c0,1.1,0.9,2.1,2,2.1
		c1.1,0,2.1-0.9,2.1-2c0-1.1-0.9-2.1-2-2.1c-0.4,0-0.8,0.1-1.1,0.3L34.2,47c0.5-0.7,0.8-1.6,0.9-2.5c0-0.1,0-0.2,0-0.3l2.7-0.4
		c0.2,1.1,1.1,1.9,2.3,1.9c1.3,0,2.4-1,2.4-2.3c0-1.3-1-2.4-2.3-2.4c-1.2,0-2.1,0.8-2.3,1.9l-2.8,0.4c-0.2-0.8-0.7-1.6-1.3-2.1
		l0.4-0.6c0.2,0.1,0.4,0.1,0.7,0.1c1.3,0,2.4-1,2.4-2.3c0-1.3-1-2.4-2.3-2.4c-1.3,0-2.4,1-2.4,2.3c0,0.8,0.3,1.4,0.9,1.9L33,40.7
		c-0.6-0.4-1.4-0.6-2.2-0.6c-1.2,0-2.2,0.4-3,1.2l-3.6-2.5c0.1-0.1,0.2-0.3,0.2-0.4c0.3-0.6,0.3-1.2,0-1.8c-0.3-0.9-1.2-1.5-2.1-1.5
		c-0.3,0-0.6,0-0.9,0.2c-0.6,0.2-1,0.7-1.3,1.2c-0.3,0.6-0.3,1.2,0,1.8c0.1,0.2,0.2,0.4,0.3,0.5l-3,3.3c-0.3-0.2-0.7-0.3-1.1-0.3
		l-0.1,0c-0.6,0-1.2,0.3-1.7,0.7c-0.4,0.4-0.7,1-0.7,1.7c0,1.2,0.9,2.1,2,2.3l0.5,2.8c-0.7,0.2-1.4,0.6-1.9,1.1
		c-0.1,0.1-0.1,0.1-0.2,0.2l-0.6-0.4c0.1-0.2,0.1-0.4,0.1-0.7c0-1.3-1-2.3-2.3-2.3l-0.1,0c-0.6,0-1.2,0.3-1.6,0.7
		c-0.4,0.4-0.7,1-0.7,1.7C9.1,50.7,10.1,51.8,11.4,51.8z M40.1,41.8c0.8,0,1.5,0.7,1.5,1.5c0,0.8-0.7,1.5-1.5,1.5
		c-0.8,0-1.5-0.7-1.5-1.5C38.6,42.4,39.3,41.8,40.1,41.8z M34.8,36.8c0.8,0,1.5,0.7,1.5,1.5c0,0.8-0.7,1.5-1.5,1.5
		c-0.8,0-1.5-0.7-1.5-1.5C33.3,37.5,34,36.8,34.8,36.8z M23.9,48c-0.2,0.2-0.5,0.4-0.9,0.4c-0.7,0-1.2-0.6-1.2-1.2
		c0-0.3,0.1-0.6,0.4-0.9c0.2-0.2,0.5-0.4,0.9-0.4l0-0.4l0,0.4c0.7,0,1.2,0.6,1.2,1.2C24.3,47.5,24.2,47.8,23.9,48z M38,50.1
		c0,0.7-0.6,1.2-1.2,1.2c-0.7,0-1.2-0.6-1.2-1.2c0-0.7,0.6-1.2,1.2-1.2C37.4,48.8,38,49.4,38,50.1z M30.8,40.9
		c1.9,0,3.5,1.6,3.4,3.6c0,1.9-1.6,3.5-3.6,3.4c-1.9,0-3.5-1.6-3.4-3.6C27.3,42.4,28.9,40.8,30.8,40.9z M20.9,36.7
		c0.2-0.4,0.5-0.6,0.8-0.8c0.2-0.1,0.4-0.1,0.6-0.1c0.6,0,1.1,0.4,1.4,1c0.1,0.4,0.1,0.8,0,1.1c-0.2,0.4-0.5,0.6-0.8,0.8
		c-0.2,0.1-0.4,0.1-0.6,0.1c-0.6,0-1.1-0.4-1.4-1C20.7,37.5,20.7,37.1,20.9,36.7z M14.8,44c0-0.8,0.7-1.5,1.5-1.5l0,0
		c0.8,0,1.5,0.7,1.5,1.5c0,0.4-0.2,0.8-0.4,1.1c-0.3,0.3-0.7,0.4-1.1,0.4C15.4,45.5,14.8,44.8,14.8,44z M16.7,46.3
		c0.4-0.1,0.8-0.3,1.2-0.6c0.4-0.4,0.7-1,0.7-1.7c0-0.6-0.2-1.1-0.5-1.5l2.9-3.2c0.4,0.2,0.8,0.4,1.2,0.4c0.3,0,0.6,0,0.9-0.2
		c0.2-0.1,0.3-0.1,0.4-0.2l3.6,2.5c-0.5,0.7-0.8,1.5-0.8,2.5c0,0.3,0,0.5,0.1,0.8L24.7,46c-0.4-0.5-1-0.9-1.6-0.9l-0.1,0
		c-0.5,0-1.1,0.2-1.5,0.6c-0.4,0.4-0.6,0.9-0.6,1.5c0,0.4,0.1,0.8,0.3,1.1L20,49.8c-0.7-0.5-1.5-0.8-2.4-0.8l-0.1,0
		c-0.1,0-0.2,0-0.3,0L16.7,46.3z M17.5,49.8L17.5,49.8c2,0,3.5,1.6,3.5,3.5c0,1.9-1.6,3.5-3.5,3.5l-0.1,0c-1.9,0-3.4-1.6-3.4-3.5
		c0-0.9,0.4-1.8,1-2.5C15.7,50.2,16.6,49.8,17.5,49.8z M10.3,48.4c0.3-0.3,0.7-0.4,1.1-0.4l0,0c0.8,0,1.5,0.7,1.5,1.5
		c0,0.8-0.7,1.5-1.5,1.5c-0.8,0-1.5-0.7-1.5-1.5C9.9,49.1,10.1,48.7,10.3,48.4z"/>
</g>
<g>
	<path class="st4" d="M219,41.3c0,1.1-0.9,2-2,2H64.1c-1.1,0-2-0.9-2-2V25c0-1.1,0.9-2,2-2H217c1.1,0,2,0.9,2,2V41.3z"/>
</g>
<g>
	<g>
		<path class="st1" d="M68,39.4c-0.6,0-1.1-0.1-1.4-0.3s-0.6-0.5-0.8-0.9c-0.2-0.4-0.3-0.8-0.4-1.4s-0.1-1.1-0.1-1.8V31
			c0-0.8,0.1-1.6,0.2-2.2c0.1-0.6,0.4-1.1,0.8-1.5s1-0.5,1.8-0.5c0.5,0,1,0.1,1.3,0.3s0.6,0.4,0.8,0.8c0.2,0.3,0.3,0.7,0.4,1.2
			c0.1,0.5,0.1,1,0.1,1.6v0.9h-1.7v-1.1c0-0.5,0-0.9,0-1.2s-0.1-0.6-0.2-0.7c-0.1-0.2-0.3-0.2-0.6-0.2c-0.3,0-0.5,0.1-0.7,0.3
			c-0.2,0.2-0.3,0.4-0.3,0.8c-0.1,0.3-0.1,0.7-0.1,1.2v5.3c0,0.5,0,0.9,0.1,1.3c0,0.3,0.1,0.6,0.3,0.8c0.1,0.2,0.4,0.3,0.7,0.3
			c0.3,0,0.5-0.1,0.6-0.3c0.1-0.2,0.2-0.4,0.3-0.8s0.1-0.7,0.1-1.2v-1.2h1.7v0.8c0,0.6,0,1.2-0.1,1.7s-0.2,0.9-0.4,1.3
			c-0.2,0.4-0.4,0.6-0.8,0.8C69,39.3,68.5,39.4,68,39.4z"/>
		<path class="st1" d="M75.2,39.4c-0.6,0-1.1-0.1-1.4-0.3s-0.6-0.5-0.8-0.9c-0.2-0.4-0.3-0.8-0.4-1.3c-0.1-0.5-0.1-1.1-0.1-1.7v-4.4
			c0-0.8,0.1-1.5,0.2-2.1c0.1-0.6,0.4-1.1,0.8-1.4c0.4-0.4,1-0.5,1.7-0.5c0.6,0,1,0.1,1.4,0.3c0.4,0.2,0.6,0.5,0.8,0.8
			c0.2,0.4,0.3,0.8,0.4,1.3s0.1,1,0.1,1.6v4.4c0,0.6,0,1.2-0.1,1.7s-0.2,1-0.4,1.3c-0.2,0.4-0.5,0.7-0.8,0.9
			C76.3,39.3,75.8,39.4,75.2,39.4z M75.2,38c0.3,0,0.5-0.1,0.7-0.3c0.1-0.2,0.2-0.5,0.3-0.8c0-0.4,0.1-0.8,0.1-1.2v-5.2
			c0-0.5,0-0.9-0.1-1.2c0-0.3-0.1-0.6-0.3-0.8s-0.4-0.3-0.7-0.3c-0.3,0-0.5,0.1-0.7,0.3c-0.2,0.2-0.3,0.5-0.3,0.8
			c0,0.3-0.1,0.7-0.1,1.2v5.2c0,0.5,0,0.9,0.1,1.2c0,0.4,0.1,0.6,0.3,0.8C74.7,37.9,74.9,38,75.2,38z"/>
		<path class="st1" d="M80.1,39.3V26.9h1.7v1.3c0.1-0.4,0.3-0.7,0.7-1s0.8-0.4,1.3-0.4c0.6,0,1.1,0.2,1.5,0.7c0.3,0.4,0.5,1.1,0.5,2
			v9.9h-1.7v-9.9c0-0.4-0.1-0.8-0.3-1c-0.2-0.2-0.5-0.3-0.8-0.3c-0.2,0-0.4,0-0.6,0.1s-0.3,0.3-0.4,0.5s-0.2,0.5-0.2,0.8v9.7H80.1z"
			/>
		<path class="st1" d="M90.5,39.4c-0.9,0-1.5-0.3-2-0.8s-0.7-1.5-0.7-2.8v-0.9h1.6v0.9c0,0.7,0.1,1.2,0.2,1.6
			c0.2,0.4,0.4,0.6,0.7,0.6c0.3,0,0.6-0.1,0.8-0.3c0.2-0.2,0.2-0.6,0.2-1.2c0-0.3,0-0.6-0.1-0.9c-0.1-0.3-0.2-0.6-0.4-0.9
			c-0.2-0.3-0.4-0.6-0.7-0.8l-0.9-0.8c-0.5-0.5-0.9-1-1.2-1.6c-0.3-0.6-0.4-1.2-0.4-1.8c0-1,0.2-1.7,0.7-2.2c0.5-0.5,1.1-0.7,2-0.7
			c0.6,0,1,0.1,1.4,0.4c0.4,0.2,0.7,0.6,0.9,1.2c0.2,0.6,0.3,1.3,0.3,2.3v0.6h-1.6v-0.9c0-0.7-0.1-1.2-0.2-1.6
			c-0.1-0.4-0.4-0.6-0.7-0.6c-0.3,0-0.6,0.1-0.8,0.3c-0.2,0.2-0.3,0.6-0.3,1.1c0,0.3,0,0.5,0.1,0.8s0.2,0.5,0.4,0.8
			c0.2,0.3,0.4,0.5,0.7,0.8l0.9,0.8c0.6,0.5,1,1.1,1.3,1.7c0.3,0.6,0.4,1.3,0.4,1.9c0,0.9-0.2,1.7-0.6,2.2
			C92,39.2,91.4,39.4,90.5,39.4z"/>
		<path class="st1" d="M96.9,39.4c-0.5,0-0.9-0.1-1.2-0.2c-0.3-0.1-0.5-0.3-0.5-0.6c-0.1-0.3-0.1-0.7-0.1-1.1v-9.2h-1.1V27h1.1v-2.2
			h1.7V27h1.3v1.3h-1.3v9c0,0.2,0,0.4,0.1,0.5c0.1,0.1,0.2,0.2,0.4,0.2c0.2,0,0.5,0,0.9,0v1.3H96.9z"/>
		<path class="st1" d="M99.7,39.3V26.9h1.7v1.4c0.1-0.5,0.4-0.9,0.7-1.1c0.4-0.3,0.8-0.4,1.4-0.4c0,0,0,0.1,0,0.2c0,0.1,0,0.3,0,0.5
			c0,0.2,0,0.4,0,0.7c-0.3,0-0.5,0-0.8,0.1c-0.3,0.1-0.5,0.2-0.7,0.3s-0.4,0.4-0.6,0.6v10.1H99.7z"/>
		<path class="st1" d="M107,39.4c-0.4,0-0.7-0.1-1-0.3c-0.3-0.2-0.6-0.5-0.8-0.9s-0.3-0.9-0.3-1.6v-9.8h1.7v9.6
			c0,0.5,0.1,0.8,0.3,1.1s0.4,0.4,0.8,0.4c0.4,0,0.7-0.1,0.9-0.4c0.2-0.3,0.3-0.6,0.3-1.1v-9.6h1.7v12.4h-1.7V38
			c-0.1,0.4-0.3,0.7-0.7,1S107.5,39.4,107,39.4z"/>
		<path class="st1" d="M115.5,39.4c-0.6,0-1.1-0.1-1.4-0.3c-0.4-0.2-0.6-0.5-0.8-0.9c-0.2-0.4-0.3-0.8-0.4-1.4
			c-0.1-0.5-0.1-1.1-0.1-1.8V31c0-0.8,0.1-1.6,0.2-2.2c0.1-0.6,0.4-1.1,0.8-1.5c0.4-0.4,1-0.5,1.8-0.5c0.5,0,1,0.1,1.3,0.3
			s0.6,0.4,0.8,0.8c0.2,0.3,0.3,0.7,0.4,1.2s0.1,1,0.1,1.6v0.9h-1.7v-1.1c0-0.5,0-0.9,0-1.2s-0.1-0.6-0.2-0.7
			c-0.1-0.2-0.3-0.2-0.6-0.2c-0.3,0-0.5,0.1-0.7,0.3c-0.2,0.2-0.3,0.4-0.3,0.8c-0.1,0.3-0.1,0.7-0.1,1.2v5.3c0,0.5,0,0.9,0.1,1.3
			s0.1,0.6,0.3,0.8c0.1,0.2,0.4,0.3,0.7,0.3c0.3,0,0.5-0.1,0.6-0.3c0.1-0.2,0.2-0.4,0.3-0.8c0-0.3,0.1-0.7,0.1-1.2v-1.2h1.7v0.8
			c0,0.6,0,1.2-0.1,1.7s-0.2,0.9-0.4,1.3c-0.2,0.4-0.4,0.6-0.8,0.8C116.5,39.3,116.1,39.4,115.5,39.4z"/>
		<path class="st1" d="M122.3,39.4c-0.5,0-0.9-0.1-1.2-0.2s-0.5-0.3-0.5-0.6c-0.1-0.3-0.1-0.7-0.1-1.1v-9.2h-1.1V27h1.1v-2.2h1.7V27
			h1.3v1.3h-1.3v9c0,0.2,0,0.4,0.1,0.5c0.1,0.1,0.2,0.2,0.4,0.2c0.2,0,0.5,0,0.9,0v1.3H122.3z"/>
		<path class="st1" d="M125.1,25.8v-1.6h1.7v1.6H125.1z M125.1,39.3V26.9h1.7v12.4H125.1z"/>
		<path class="st1" d="M131.8,39.4c-0.6,0-1.1-0.1-1.4-0.3c-0.4-0.2-0.6-0.5-0.8-0.9c-0.2-0.4-0.3-0.8-0.4-1.3
			c-0.1-0.5-0.1-1.1-0.1-1.7v-4.4c0-0.8,0.1-1.5,0.2-2.1c0.1-0.6,0.4-1.1,0.8-1.4s1-0.5,1.7-0.5c0.6,0,1,0.1,1.4,0.3
			c0.4,0.2,0.6,0.5,0.8,0.8c0.2,0.4,0.3,0.8,0.4,1.3s0.1,1,0.1,1.6v4.4c0,0.6,0,1.2-0.1,1.7c-0.1,0.5-0.2,1-0.4,1.3
			c-0.2,0.4-0.5,0.7-0.8,0.9S132.4,39.4,131.8,39.4z M131.8,38c0.3,0,0.5-0.1,0.7-0.3c0.1-0.2,0.2-0.5,0.3-0.8
			c0-0.4,0.1-0.8,0.1-1.2v-5.2c0-0.5,0-0.9-0.1-1.2c0-0.3-0.1-0.6-0.3-0.8s-0.4-0.3-0.7-0.3c-0.3,0-0.5,0.1-0.7,0.3
			s-0.3,0.5-0.3,0.8c0,0.3-0.1,0.7-0.1,1.2v5.2c0,0.5,0,0.9,0.1,1.2c0,0.4,0.1,0.6,0.3,0.8C131.3,37.9,131.5,38,131.8,38z"/>
		<path class="st1" d="M136.8,39.3V26.9h1.7v1.3c0.1-0.4,0.3-0.7,0.7-1s0.8-0.4,1.3-0.4c0.6,0,1.1,0.2,1.5,0.7
			c0.3,0.4,0.5,1.1,0.5,2v9.9h-1.7v-9.9c0-0.4-0.1-0.8-0.3-1c-0.2-0.2-0.5-0.3-0.8-0.3c-0.2,0-0.4,0-0.6,0.1
			c-0.2,0.1-0.3,0.3-0.4,0.5c-0.1,0.2-0.2,0.5-0.2,0.8v9.7H136.8z"/>
		<path class="st1" d="M144.8,41.5V26.9h1.7v1c0.2-0.4,0.4-0.7,0.7-0.9c0.3-0.2,0.7-0.3,1-0.3c0.6,0,1,0.2,1.3,0.5
			c0.3,0.3,0.5,0.8,0.6,1.4c0.1,0.6,0.2,1.3,0.2,2v4.5c0,0.8-0.1,1.5-0.2,2.1c-0.1,0.6-0.3,1.1-0.7,1.5c-0.3,0.4-0.8,0.6-1.5,0.6
			c-0.3,0-0.6-0.1-0.9-0.3c-0.3-0.2-0.4-0.4-0.6-0.7v3.1H144.8z M147.6,38c0.4,0,0.7-0.2,0.8-0.6s0.2-1,0.2-1.9v-5
			c0-0.5,0-0.9-0.1-1.2c0-0.3-0.1-0.6-0.3-0.8c-0.1-0.2-0.4-0.3-0.7-0.3c-0.2,0-0.4,0.1-0.6,0.2c-0.2,0.1-0.3,0.3-0.4,0.7
			s-0.1,0.8-0.1,1.5v5.1c0,0.8,0.1,1.4,0.2,1.8S147.1,38,147.6,38z"/>
		<path class="st1" d="M152.5,39.3V26.9h1.7v1.4c0.1-0.5,0.4-0.9,0.7-1.1c0.4-0.3,0.8-0.4,1.4-0.4c0,0,0,0.1,0,0.2
			c0,0.1,0,0.3,0,0.5c0,0.2,0,0.4,0,0.7c-0.3,0-0.5,0-0.8,0.1c-0.3,0.1-0.5,0.2-0.7,0.3c-0.2,0.2-0.4,0.4-0.6,0.6v10.1H152.5z"/>
		<path class="st1" d="M160.4,39.4c-0.6,0-1.1-0.1-1.4-0.3c-0.4-0.2-0.6-0.5-0.8-0.9c-0.2-0.4-0.3-0.8-0.4-1.3
			c-0.1-0.5-0.1-1.1-0.1-1.7v-4.4c0-0.8,0.1-1.5,0.2-2.1c0.1-0.6,0.4-1.1,0.8-1.4s1-0.5,1.7-0.5c0.6,0,1,0.1,1.4,0.3
			c0.4,0.2,0.6,0.5,0.8,0.8c0.2,0.4,0.3,0.8,0.4,1.3s0.1,1,0.1,1.6v4.4c0,0.6,0,1.2-0.1,1.7c-0.1,0.5-0.2,1-0.4,1.3
			c-0.2,0.4-0.5,0.7-0.8,0.9S161,39.4,160.4,39.4z M160.4,38c0.3,0,0.5-0.1,0.7-0.3c0.1-0.2,0.2-0.5,0.3-0.8c0-0.4,0.1-0.8,0.1-1.2
			v-5.2c0-0.5,0-0.9-0.1-1.2c0-0.3-0.1-0.6-0.3-0.8s-0.4-0.3-0.7-0.3c-0.3,0-0.5,0.1-0.7,0.3s-0.3,0.5-0.3,0.8
			c0,0.3-0.1,0.7-0.1,1.2v5.2c0,0.5,0,0.9,0.1,1.2c0,0.4,0.1,0.6,0.3,0.8C159.9,37.9,160.1,38,160.4,38z"/>
		<path class="st1" d="M167.3,39.4c-0.6,0-1.1-0.2-1.4-0.5c-0.3-0.4-0.5-0.8-0.6-1.5c-0.1-0.6-0.1-1.3-0.1-2.1v-4.7
			c0-0.7,0.1-1.4,0.2-2s0.4-1,0.7-1.4c0.3-0.3,0.8-0.5,1.4-0.5c0.3,0,0.6,0.1,0.9,0.3s0.4,0.4,0.6,0.7v-3.1h1.7v14.7H169v-1
			c-0.2,0.4-0.4,0.7-0.7,0.9C168,39.3,167.6,39.4,167.3,39.4z M167.9,38c0.3,0,0.5-0.1,0.6-0.2c0.2-0.1,0.3-0.4,0.4-0.7
			c0.1-0.4,0.1-0.9,0.1-1.5v-5c0-0.8-0.1-1.4-0.2-1.8s-0.4-0.6-0.9-0.6c-0.4,0-0.7,0.2-0.8,0.6c-0.1,0.4-0.2,1-0.2,1.9v5
			c0,0.5,0,0.9,0.1,1.2c0,0.4,0.1,0.6,0.3,0.8S167.6,38,167.9,38z"/>
		<path class="st1" d="M175.1,39.4c-0.4,0-0.7-0.1-1-0.3c-0.3-0.2-0.6-0.5-0.8-0.9s-0.3-0.9-0.3-1.6v-9.8h1.7v9.6
			c0,0.5,0.1,0.8,0.3,1.1s0.4,0.4,0.8,0.4c0.4,0,0.7-0.1,0.9-0.4c0.2-0.3,0.3-0.6,0.3-1.1v-9.6h1.7v12.4H177V38
			c-0.1,0.4-0.3,0.7-0.7,1S175.6,39.4,175.1,39.4z"/>
		<path class="st1" d="M183.6,39.4c-0.6,0-1.1-0.1-1.4-0.3c-0.4-0.2-0.6-0.5-0.8-0.9c-0.2-0.4-0.3-0.8-0.4-1.4
			c-0.1-0.5-0.1-1.1-0.1-1.8V31c0-0.8,0.1-1.6,0.2-2.2c0.1-0.6,0.4-1.1,0.8-1.5c0.4-0.4,1-0.5,1.8-0.5c0.5,0,1,0.1,1.3,0.3
			s0.6,0.4,0.8,0.8c0.2,0.3,0.3,0.7,0.4,1.2s0.1,1,0.1,1.6v0.9h-1.7v-1.1c0-0.5,0-0.9,0-1.2s-0.1-0.6-0.2-0.7
			c-0.1-0.2-0.3-0.2-0.6-0.2c-0.3,0-0.5,0.1-0.7,0.3c-0.2,0.2-0.3,0.4-0.3,0.8c-0.1,0.3-0.1,0.7-0.1,1.2v5.3c0,0.5,0,0.9,0.1,1.3
			s0.1,0.6,0.3,0.8c0.1,0.2,0.4,0.3,0.7,0.3c0.3,0,0.5-0.1,0.6-0.3c0.1-0.2,0.2-0.4,0.3-0.8c0-0.3,0.1-0.7,0.1-1.2v-1.2h1.7v0.8
			c0,0.6,0,1.2-0.1,1.7s-0.2,0.9-0.4,1.3c-0.2,0.4-0.4,0.6-0.8,0.8C184.6,39.3,184.2,39.4,183.6,39.4z"/>
		<path class="st1" d="M190.4,39.4c-0.5,0-0.9-0.1-1.2-0.2s-0.5-0.3-0.5-0.6c-0.1-0.3-0.1-0.7-0.1-1.1v-9.2h-1.1V27h1.1v-2.2h1.7V27
			h1.3v1.3h-1.3v9c0,0.2,0,0.4,0.1,0.5c0.1,0.1,0.2,0.2,0.4,0.2c0.2,0,0.5,0,0.9,0v1.3H190.4z"/>
		<path class="st1" d="M195.5,39.4c-0.9,0-1.5-0.3-2-0.8c-0.5-0.6-0.7-1.5-0.7-2.8v-0.9h1.6v0.9c0,0.7,0.1,1.2,0.2,1.6
			c0.2,0.4,0.4,0.6,0.7,0.6s0.6-0.1,0.8-0.3c0.2-0.2,0.2-0.6,0.2-1.2c0-0.3,0-0.6-0.1-0.9c-0.1-0.3-0.2-0.6-0.4-0.9
			s-0.4-0.6-0.7-0.8l-0.9-0.8c-0.5-0.5-0.9-1-1.2-1.6c-0.3-0.6-0.4-1.2-0.4-1.8c0-1,0.2-1.7,0.7-2.2c0.5-0.5,1.1-0.7,2-0.7
			c0.6,0,1,0.1,1.4,0.4c0.4,0.2,0.7,0.6,0.9,1.2s0.3,1.3,0.3,2.3v0.6h-1.6v-0.9c0-0.7-0.1-1.2-0.2-1.6c-0.1-0.4-0.4-0.6-0.7-0.6
			c-0.3,0-0.6,0.1-0.8,0.3s-0.3,0.6-0.3,1.1c0,0.3,0,0.5,0.1,0.8s0.2,0.5,0.4,0.8c0.2,0.3,0.4,0.5,0.7,0.8l0.9,0.8
			c0.6,0.5,1,1.1,1.3,1.7c0.3,0.6,0.4,1.3,0.4,1.9c0,0.9-0.2,1.7-0.6,2.2C197.1,39.2,196.4,39.4,195.5,39.4z"/>
		<path class="st1" d="M200,39.3v-1.6h1.4v1.6H200z"/>
		<path class="st1" d="M206.1,39.4c-0.7,0-1.3-0.3-1.6-0.9c-0.3-0.6-0.5-1.4-0.5-2.4v-1.2c0-0.5,0.1-1,0.3-1.4
			c0.2-0.4,0.5-0.7,0.8-0.9c0.3-0.2,0.7-0.5,1.2-0.7s1-0.4,1.5-0.6v-1c0-0.5,0-1,0-1.3s-0.1-0.6-0.3-0.7s-0.4-0.2-0.6-0.2
			c-0.3,0-0.5,0.1-0.7,0.2c-0.1,0.2-0.2,0.4-0.3,0.7c0,0.3-0.1,0.8-0.1,1.3v0.4h-1.7v-0.4c0-0.5,0-1,0.1-1.5
			c0.1-0.5,0.2-0.8,0.4-1.2s0.5-0.6,0.8-0.8c0.4-0.2,0.8-0.3,1.4-0.3c0.6,0,1,0.1,1.4,0.3c0.3,0.2,0.6,0.4,0.8,0.8
			c0.2,0.3,0.3,0.8,0.4,1.3c0.1,0.5,0.1,1.1,0.1,1.8v8.4h-1.7v-1.1c0,0.2-0.1,0.3-0.3,0.5c-0.1,0.2-0.3,0.3-0.6,0.5
			C206.7,39.3,206.4,39.4,206.1,39.4z M206.5,38c0.3,0,0.6-0.1,0.8-0.3c0.2-0.2,0.4-0.4,0.4-0.6v-4.7c-0.4,0.2-0.8,0.4-1,0.5
			c-0.3,0.2-0.5,0.3-0.6,0.5s-0.3,0.4-0.3,0.6c-0.1,0.2-0.1,0.5-0.1,0.9v1.1c0,0.7,0.1,1.2,0.2,1.5S206.2,38,206.5,38z"/>
		<path class="st1" d="M214.2,39.4c-0.6,0-1.1-0.1-1.4-0.3c-0.4-0.2-0.6-0.5-0.8-0.9s-0.3-0.8-0.4-1.4c-0.1-0.5-0.1-1.1-0.1-1.8
			v-4.4c0-0.6,0-1.1,0.1-1.6c0.1-0.5,0.2-0.9,0.4-1.3c0.2-0.4,0.5-0.6,0.8-0.8c0.4-0.2,0.8-0.3,1.4-0.3c0.6,0,1,0.1,1.4,0.3
			c0.3,0.2,0.6,0.5,0.8,0.8s0.3,0.8,0.4,1.3c0.1,0.5,0.1,1,0.1,1.6v2.3h-3.7v2.5c0,0.8,0.1,1.4,0.2,1.8c0.1,0.4,0.4,0.6,0.9,0.6
			c0.3,0,0.5-0.1,0.7-0.3c0.1-0.2,0.2-0.5,0.2-0.8c0-0.4,0-0.8,0-1.3v-1h1.7v0.5c0,0.6,0,1.2-0.1,1.7c-0.1,0.5-0.2,1-0.3,1.3
			c-0.2,0.4-0.4,0.7-0.8,0.9C215.3,39.3,214.8,39.4,214.2,39.4z M213.2,32h2v-1.6c0-0.5,0-0.9,0-1.3c0-0.3-0.1-0.6-0.2-0.8
			c-0.1-0.2-0.3-0.3-0.6-0.3c-0.3,0-0.6,0.1-0.7,0.3c-0.2,0.2-0.3,0.5-0.3,0.8c0,0.3-0.1,0.8-0.1,1.2V32z"/>
	</g>
</g>
<text transform="matrix(1 0 0 1 61.3423 53.3281)" class="st1 st5 st6">Online Partner for Quality Products</text>
</svg>
